<svg version="1.0" xmlns="http://www.w3.org/2000/svg" viewBox="0 0 189.000000 136.000000" preserveAspectRatio="xMidYMid meet">
<g transform="translate(0.000000,136.000000) scale(0.100000,-0.100000)" fill="#000000" stroke="none">
<path d="M0 820 l0 -531 88 3 87 3 3 297 c2 280 3 298 21 308 37 20 57 -17
164 -315 l105 -290 77 0 78 0 106 291 c58 160 112 299 120 308 7 9 21 16 31
16 35 0 40 -42 40 -335 l0 -285 85 0 85 0 -2 528 -3 527 -124 0 -123 0 -117
-330 c-64 -181 -122 -340 -129 -352 -15 -27 -62 -31 -85 -8 -18 17 -17 15
-151 395 l-103 295 -127 3 -126 3 0 -531z"/>
<path d="M1455 1158 c-120 -338 -124 -347 -155 -363 -16 -8 -38 -15 -50 -15
-15 0 -20 -6 -20 -25 l0 -25 130 0 130 0 0 25 c0 19 -5 25 -23 25 -12 0 -33 7
-45 16 -26 18 -24 44 9 121 l19 44 91 -3 91 -3 19 -55 c34 -96 25 -120 -43
-120 -25 0 -29 -3 -26 -22 3 -23 5 -23 153 -23 148 0 150 0 153 23 3 18 -1 22
-21 22 -52 0 -67 27 -168 301 l-96 264 -39 3 -40 3 -69 -193z m120 -38 c15
-47 30 -91 33 -97 3 -10 -15 -13 -71 -13 l-76 0 36 105 c20 58 39 102 43 98 4
-4 20 -46 35 -93z"/>
</g>
</svg>
