<svg version="1.0" xmlns="http://www.w3.org/2000/svg" viewBox="0 0 1274.000000 136.000000" preserveAspectRatio="xMidYMid meet">
<g transform="translate(0.000000,136.000000) scale(0.100000,-0.100000)" fill="#000000" stroke="none">
<path d="M6663 1287 l-73 -62 0 -63 c0 -87 -26 -131 -77 -132 -21 0 -23 -4
-23 -65 0 -62 1 -65 24 -65 13 0 34 -9 47 -19 24 -19 24 -23 29 -238 5 -198 7
-222 26 -258 27 -49 49 -70 97 -90 46 -19 137 -19 182 -1 34 15 35 16 35 74
l0 59 -47 -10 c-64 -12 -100 2 -118 48 -12 26 -15 82 -15 235 l0 200 75 0 75
0 0 65 0 65 -41 0 c-33 0 -47 6 -75 34 l-34 34 0 126 c0 69 -3 126 -7 126 -5
-1 -41 -29 -80 -63z"/>
<path d="M7780 1346 c0 -19 -307 -861 -325 -892 -26 -45 -80 -74 -135 -74 -28
0 -30 -2 -30 -40 l0 -40 220 0 220 0 0 40 c0 38 -1 40 -32 40 -56 0 -104 18
-118 44 -11 22 -9 36 15 113 15 48 34 100 41 116 l15 27 153 0 154 0 37 -103
c56 -158 43 -197 -67 -197 l-48 0 0 -40 0 -40 255 0 255 0 0 40 c0 38 -2 40
-30 40 -42 0 -94 23 -113 50 -8 12 -88 224 -178 471 l-163 449 -63 0 c-35 0
-63 -2 -63 -4z m146 -568 c5 -17 -5 -18 -125 -18 l-130 0 56 163 c30 89 60
173 65 187 9 22 17 4 69 -145 33 -93 62 -178 65 -187z"/>
<path d="M10 820 l0 -520 85 0 85 0 2 298 c3 294 3 297 24 300 12 2 28 -3 36
-11 8 -8 61 -143 118 -301 l103 -286 76 0 76 0 105 291 c107 298 123 329 162
308 17 -9 18 -28 18 -304 l0 -295 85 0 85 0 0 520 0 521 -121 -3 -122 -3 -47
-130 c-25 -71 -77 -218 -114 -325 -38 -107 -74 -205 -82 -217 -18 -28 -64 -31
-86 -5 -12 13 -186 492 -235 647 l-10 30 -121 3 -122 3 0 -521z"/>
<path d="M7054 1303 c-27 -5 -51 -31 -55 -58 -5 -37 12 -64 61 -94 27 -17 54
-40 60 -52 19 -34 3 -81 -45 -136 -46 -53 -57 -83 -30 -83 79 0 195 158 195
265 0 99 -89 175 -186 158z"/>
<path d="M9105 1118 c-31 -24 -55 -74 -55 -114 l0 -27 -22 20 c-89 81 -247
103 -382 53 -136 -51 -203 -178 -165 -313 6 -21 30 -58 55 -84 l44 -47 -48
-46 c-92 -87 -102 -122 -49 -173 18 -18 41 -37 51 -42 17 -10 14 -13 -23 -38
-123 -81 -101 -212 45 -266 124 -47 345 -47 471 0 156 59 214 219 116 321 -38
40 -96 55 -293 78 -96 11 -187 25 -202 31 -36 15 -43 42 -21 79 16 27 20 29
53 23 19 -5 80 -8 135 -7 88 0 107 3 157 27 62 30 112 81 136 136 11 28 13 58
8 138 -6 98 -6 102 16 117 12 9 37 16 54 16 72 0 109 73 61 118 -32 30 -104
30 -142 0z m-227 -138 c96 -59 96 -268 0 -325 -47 -27 -126 -25 -168 5 -102
73 -86 285 25 330 38 16 109 11 143 -10z m49 -700 c93 -13 133 -36 133 -76 0
-39 -17 -62 -63 -86 -37 -20 -56 -23 -167 -23 -111 0 -130 3 -167 23 -70 37
-92 106 -54 168 l19 30 108 -12 c60 -7 146 -18 191 -24z"/>
<path d="M10307 1056 c-30 -39 -84 -67 -144 -74 -41 -4 -43 -6 -43 -37 0 -34
13 -45 52 -45 11 0 33 -13 49 -29 l29 -29 0 -207 c0 -115 -4 -214 -10 -225
-10 -20 -59 -40 -96 -40 -21 0 -24 -5 -24 -35 l0 -35 205 0 205 0 0 35 c0 31
-3 35 -25 35 -43 0 -94 27 -100 52 -3 13 -4 115 -3 228 l3 205 94 38 c115 47
174 53 202 18 18 -21 19 -42 19 -262 l0 -239 -25 -16 c-13 -9 -42 -18 -65 -21
-38 -5 -40 -8 -40 -39 l0 -34 210 0 210 0 0 34 c0 32 -2 34 -45 39 -85 9 -83
1 -87 315 -3 246 -5 281 -22 315 -48 97 -137 91 -398 -27 l-58 -26 0 70 0 70
-34 0 c-26 0 -39 -7 -59 -34z"/>
<path d="M9582 1065 c-75 -21 -109 -41 -162 -94 -193 -193 -142 -548 96 -660
151 -72 335 -46 450 62 l55 52 -23 28 -23 29 -28 -22 c-46 -37 -121 -60 -192
-60 -135 0 -228 73 -269 210 -9 30 -16 69 -16 87 l0 33 260 0 260 0 11 24 c26
56 -33 195 -108 252 -80 61 -213 87 -311 59z m175 -95 c56 -34 80 -105 46
-142 -14 -16 -34 -18 -171 -18 l-154 0 7 28 c13 55 54 109 97 131 56 27 132
28 175 1z"/>
<path d="M11373 1070 c-96 -20 -191 -94 -236 -182 -116 -229 -29 -508 183
-590 140 -53 315 -27 433 66 18 14 18 16 1 46 -13 21 -23 28 -34 24 -103 -46
-182 -54 -266 -29 -139 41 -221 208 -194 398 12 79 26 110 69 151 25 24 42 30
91 34 55 4 61 2 88 -24 17 -17 38 -58 52 -99 27 -81 56 -115 100 -115 125 0
147 150 37 247 -69 60 -221 95 -324 73z"/>
<path d="M1473 1031 c-100 -34 -155 -87 -205 -196 -20 -44 -23 -66 -23 -175 0
-119 1 -128 31 -190 61 -129 161 -192 304 -193 41 0 94 5 117 11 99 29 186
119 218 225 9 30 15 90 15 149 0 110 -19 182 -67 251 -79 115 -251 167 -390
118z m198 -133 c21 -14 45 -46 64 -83 27 -54 30 -69 30 -156 0 -87 -3 -101
-30 -155 -63 -122 -185 -140 -273 -40 -39 45 -56 119 -50 228 5 102 33 167 86
203 49 33 125 34 173 3z"/>
<path d="M3016 1034 c-143 -44 -232 -165 -244 -331 -12 -180 55 -319 189 -389
50 -27 62 -29 169 -29 105 0 119 2 165 27 28 14 64 41 82 60 36 37 72 111 73
146 0 22 -2 23 -82 20 -81 -3 -82 -3 -89 -32 -18 -67 -97 -114 -173 -102 -83
14 -149 91 -162 190 l-7 46 262 0 261 0 0 59 c0 74 -31 174 -71 226 -80 106
-235 151 -373 109z m184 -126 c47 -25 77 -69 87 -132 l6 -36 -139 0 c-157 0
-184 9 -184 59 0 38 38 92 80 113 47 24 97 22 150 -4z"/>
<path d="M3936 1030 c-27 -11 -63 -33 -81 -50 -17 -16 -38 -30 -48 -30 -19 0
-37 29 -37 59 0 19 -6 21 -80 21 l-80 0 0 -365 0 -365 79 0 80 0 3 222 3 223
30 54 c38 68 88 103 158 109 42 3 57 0 80 -18 57 -45 60 -63 65 -337 l5 -253
78 0 78 0 3 228 c3 217 4 229 27 276 62 124 229 144 288 34 15 -28 18 -68 21
-285 l4 -253 80 0 80 0 -4 283 -3 282 -28 58 c-34 68 -79 102 -158 119 -76 16
-136 4 -212 -42 -84 -51 -118 -52 -178 -6 -75 58 -164 71 -253 36z"/>
<path d="M5150 1036 c-180 -52 -276 -220 -249 -437 17 -133 83 -235 187 -286
78 -38 220 -45 302 -14 76 29 123 71 159 143 48 94 46 98 -48 98 l-79 0 -22
-46 c-47 -97 -167 -122 -255 -52 -35 28 -75 112 -75 161 l0 37 261 0 262 0 -6
74 c-17 202 -134 325 -316 332 -42 2 -96 -2 -121 -10z m157 -117 c45 -17 82
-60 98 -113 8 -27 15 -53 15 -58 0 -4 -65 -8 -144 -8 -162 0 -176 5 -176 65 0
84 116 149 207 114z"/>
<path d="M6072 1035 c-23 -7 -63 -30 -89 -51 -52 -42 -71 -39 -85 14 l-9 32
-79 0 -80 0 0 -365 0 -365 80 0 80 0 0 168 c0 287 27 370 137 426 38 19 98 21
133 3 14 -6 35 -32 48 -57 20 -41 22 -58 22 -216 0 -94 3 -205 6 -247 l7 -77
80 0 79 0 -7 282 c-6 245 -10 290 -27 336 -40 107 -167 157 -296 117z"/>
<path d="M11840 1016 c0 -31 3 -35 33 -41 89 -18 87 -15 187 -246 40 -90 97
-222 128 -293 l56 -130 -35 -65 c-50 -94 -69 -101 -174 -66 -73 24 -87 26
-120 15 -65 -22 -84 -102 -33 -149 47 -44 187 -48 266 -7 37 19 88 72 117 121
13 22 93 199 178 393 85 193 161 362 170 375 16 24 47 42 90 51 23 6 27 11 27
41 l0 35 -180 0 -180 0 0 -34 c0 -35 13 -46 51 -46 26 0 59 -35 59 -64 0 -13
-30 -99 -66 -192 -88 -226 -84 -217 -88 -213 -17 18 -156 379 -156 404 0 35
25 65 56 65 49 0 64 11 64 46 l0 34 -225 0 -225 0 0 -34z"/>
<path d="M1970 1026 c0 -3 25 -67 56 -143 31 -76 96 -239 146 -363 50 -124
101 -236 113 -248 31 -33 89 -33 120 0 13 12 77 158 144 323 67 165 133 326
146 358 14 32 25 63 25 68 0 5 -40 9 -89 9 l-89 0 -68 -202 c-66 -198 -92
-248 -127 -248 -37 0 -58 40 -117 215 -34 99 -66 192 -72 208 -10 27 -12 27
-99 27 -49 0 -89 -2 -89 -4z"/>
</g>
</svg>
