<svg width="184" height="19" viewBox="0 0 184 19" fill="none" xmlns="http://www.w3.org/2000/svg">
<path d="M118.089 0.147198C117.972 0.23168 117.834 0.453449 117.771 0.643536C117.558 1.27716 117.251 1.32996 115.862 1.01315C111.832 0.0943947 108.767 1.63622 108.279 4.8149C108.003 6.58905 108.64 8.07806 110.145 9.14466C111.217 9.91557 112.32 10.3169 114.897 10.8871C116.699 11.2884 117.368 11.4785 117.866 11.7531C118.704 12.2177 119.075 12.7774 119.16 13.7279C119.277 14.974 118.884 15.7977 117.93 16.3152C117.389 16.6109 117.272 16.632 116.286 16.6214C115.13 16.6214 114.695 16.5053 113.444 15.8822C111.97 15.143 110.273 13.749 109.223 12.3973C108.703 11.732 108.385 11.6052 107.982 11.9009C107.823 12.0171 107.685 12.1861 107.664 12.2811C107.632 12.4606 109.721 18.4484 109.891 18.6596C109.955 18.7335 110.156 18.7969 110.347 18.7969C110.697 18.7969 110.962 18.5857 111.079 18.2055C111.28 17.5402 111.8 17.4979 113.635 17.9943C114.875 18.3428 116.731 18.4167 117.718 18.1738C119.775 17.6669 121.154 16.3363 121.546 14.4882C121.61 14.1397 121.641 13.4533 121.62 12.8619C121.578 11.9326 121.525 11.7425 121.175 11.0455C120.379 9.42979 119.181 8.73281 115.692 7.87741C113.253 7.27547 112.574 7.03258 111.726 6.48344C110.994 6.00822 110.665 5.4274 110.665 4.57201C110.665 3.67437 111.036 3.14635 112.033 2.63945C112.744 2.2804 112.807 2.26984 113.953 2.26984C115.109 2.26984 115.151 2.2804 115.957 2.68169C116.912 3.14635 118.11 4.22351 119.022 5.40628C119.584 6.14551 119.849 6.30391 120.316 6.18775C120.899 6.0399 120.867 5.78645 119.934 2.97739C119.086 0.390087 118.895 -0.000648499 118.471 -0.000648499C118.364 -0.000648499 118.195 0.0627136 118.089 0.147198Z" fill="black"/>
<path d="M166.141 0.263531C165.282 0.569783 164.847 1.27733 164.932 2.22777C165.027 3.14652 165.77 3.83295 166.714 3.84351C168.845 3.87519 169.322 0.780991 167.265 0.210729C166.767 0.0734439 166.65 0.0840044 166.141 0.263531Z" fill="black"/>
<path d="M94.418 1.75216L93.2196 2.7554V3.75864C93.2196 5.22653 92.9545 5.69119 92.0106 5.86016L91.6288 5.93408V6.92676V7.91944H91.9258C92.2863 7.91944 92.8378 8.24681 93.0287 8.57418C93.1348 8.75371 93.1772 9.67247 93.2196 12.1436C93.2726 15.4701 93.2726 15.4701 93.5484 16.0615C93.9301 16.8747 94.5346 17.4555 95.2982 17.7406C95.8285 17.9307 96.0724 17.9624 96.8784 17.9307C97.4511 17.899 98.0131 17.804 98.2889 17.6878L98.7343 17.5083V16.505C98.7343 15.5863 98.7131 15.5018 98.554 15.5757C97.0693 16.146 96.0936 15.6813 95.8709 14.2979C95.8073 13.9494 95.7648 12.3865 95.7648 10.8024V7.93L97.0163 7.89832L98.2571 7.86664L98.2889 6.90564L98.3207 5.94464L97.6632 5.87072C96.6026 5.76512 96.0406 5.31102 95.8603 4.42394C95.8179 4.17049 95.7754 3.23062 95.7648 2.34354C95.7648 1.46703 95.733 0.738363 95.6906 0.738363C95.6376 0.748922 95.0649 1.20302 94.418 1.75216Z" fill="black"/>
<path d="M0.0742363 0.914104C0.0318156 0.956347 0 4.73697 0 9.32019V17.6418H1.37867H2.75735V13.0586V8.46479L3.00127 8.17966C3.20277 7.94733 3.30882 7.90509 3.53153 7.96845C3.69061 8.00013 3.8815 8.13742 3.96634 8.2747C4.05118 8.40143 4.86778 10.5663 5.79043 13.0797L7.45545 17.6523L8.66444 17.6207L9.88403 17.589L11.549 13.0269C12.4717 10.5135 13.3095 8.33807 13.405 8.19022C13.6171 7.87341 14.0943 7.83117 14.3488 8.1163C14.5079 8.29583 14.5291 8.7816 14.5291 12.9741V17.6418H15.9078H17.2865L17.2652 9.26738L17.2334 0.903543H15.2927H13.3413L11.4324 6.28935C10.3719 9.2885 9.42801 11.7808 9.31135 11.9075C9.1947 12.0342 8.98259 12.1609 8.84473 12.1926C8.5796 12.2665 8.02813 12.0448 7.87965 11.8124C7.83723 11.7385 6.93579 9.24626 5.88588 6.28935L3.97695 0.903543L2.05741 0.871862C1.00749 0.861301 0.116657 0.882423 0.0742363 0.914104Z" fill="black"/>
<path d="M158.198 1.53474C157.582 2.23173 157.084 2.5063 156.13 2.67527C155.514 2.79143 155.398 2.84423 155.281 3.09768C155.08 3.50954 155.313 3.85803 155.864 3.96364C156.395 4.05868 156.787 4.26989 157.052 4.60782C157.243 4.84015 157.275 5.0408 157.275 5.81171C157.275 7.20568 157.116 7.26904 155.472 6.46645C154.093 5.80115 153.415 5.63218 152.672 5.80115C151.803 5.99123 151.05 6.40309 150.36 7.04727C148.982 8.35676 148.377 9.75074 148.292 11.8839C148.208 14.0699 148.738 15.6857 149.957 16.9001C151.039 17.9773 152.333 18.442 153.987 18.3575C155.037 18.2941 155.705 18.0407 156.448 17.4176C157.095 16.879 157.275 16.879 157.275 17.4282C157.275 18.0407 157.657 18.4208 158.208 18.3363C158.42 18.3047 159.194 18.2307 159.926 18.1568C161.411 18.0301 161.729 17.9034 161.729 17.4282C161.729 17.0057 161.496 16.8156 160.859 16.7312C160.499 16.6784 160.223 16.5728 160.064 16.4144L159.82 16.1715V8.76862C159.82 3.86859 159.788 1.29185 159.714 1.15457C159.629 1.00672 159.491 0.95392 159.152 0.95392C158.749 0.95392 158.664 1.00672 158.198 1.53474ZM155.016 7.81818C155.875 8.12444 156.999 8.81086 157.148 9.13824C157.233 9.32832 157.275 10.2048 157.275 11.9473C157.275 14.7986 157.275 14.8092 156.427 15.7702C155.79 16.4883 155.186 16.8051 154.359 16.879C153.765 16.9213 153.595 16.8896 153.097 16.6467C151.781 16.0025 151.018 14.429 151.018 12.3697C151.028 10.3316 151.972 8.51517 153.393 7.86043C154.051 7.55417 154.252 7.54361 155.016 7.81818Z" fill="black"/>
<path d="M126.212 1.41746C126.149 1.49138 126 1.9138 125.894 2.35733C125.65 3.27609 125.258 4.0998 124.77 4.7123C124.42 5.13472 123.455 5.71554 122.861 5.86339C122.405 5.96899 122.278 6.10628 122.278 6.50757C122.278 7.05671 122.564 7.18344 123.784 7.18344H124.823V11.2492C124.823 13.8471 124.865 15.505 124.94 15.8641C125.152 16.8673 125.597 17.4798 126.414 17.9128C126.965 18.2085 128.588 18.1768 129.394 17.86C130.603 17.3953 132.247 16.1387 132.247 15.6846C132.247 15.3994 131.939 15.1037 131.632 15.1037C131.504 15.1037 131.176 15.241 130.9 15.3994C130.083 15.8747 129.532 16.0542 128.842 16.0542C128.047 16.0542 127.824 15.938 127.57 15.3889C127.39 14.977 127.368 14.6391 127.368 11.0591V7.18344H129.129C131.25 7.18344 131.504 7.09896 131.504 6.37029C131.504 6.13796 131.419 5.96899 131.229 5.82115C130.963 5.6205 130.804 5.59938 129.161 5.59938H127.368V3.66682C127.368 1.47026 127.315 1.26961 126.69 1.26961C126.488 1.26961 126.276 1.33297 126.212 1.41746Z" fill="black"/>
<path d="M101.322 1.46675C101.205 1.51955 100.983 1.70964 100.834 1.88917C100.177 2.66008 100.399 3.38875 101.523 4.06461C102.436 4.62431 102.743 4.92 102.87 5.38466C103.051 6.07109 102.87 6.46182 101.767 7.76075C101.067 8.5739 100.961 8.82735 101.195 9.05968C101.545 9.40817 102.361 9.04912 103.188 8.17261C104.737 6.53575 105.384 4.50815 104.769 3.16698C104.504 2.58615 103.91 1.95253 103.348 1.6674C102.881 1.42451 101.693 1.30835 101.322 1.46675Z" fill="black"/>
<path d="M136.415 5.37943C136.308 5.48504 136.065 5.74905 135.863 5.96025C135.407 6.46715 134.824 6.75229 133.954 6.91069C133.381 7.01629 133.222 7.09022 133.106 7.31199C132.968 7.55488 132.968 7.61824 133.127 7.85057C133.244 8.03009 133.445 8.14626 133.7 8.19906C134.24 8.2941 134.622 8.49475 134.887 8.83269C135.099 9.10726 135.11 9.22342 135.11 12.6344C135.11 14.7465 135.152 16.3623 135.227 16.6791C135.449 17.7351 136.054 18.242 137.21 18.3476C138.101 18.4215 138.97 18.1575 140.763 17.2599C141.622 16.8269 142.375 16.4995 142.428 16.5312C142.491 16.5735 142.534 16.8692 142.534 17.2071C142.534 17.6612 142.587 17.8935 142.735 18.073L142.937 18.3159L144.814 18.1575C146.744 17.978 146.892 17.9358 147.03 17.4711C147.147 17.0909 146.786 16.7847 146.129 16.6791C145.715 16.6157 145.493 16.5207 145.323 16.32L145.079 16.0454V10.7758V5.4956L144.814 5.32663C144.443 5.08374 143.881 5.19991 143.647 5.56952C143.17 6.27707 142.438 6.7206 141.378 6.91069C140.784 7.01629 140.657 7.07966 140.54 7.33311C140.338 7.7344 140.582 8.10402 141.123 8.19906C141.664 8.2941 142.046 8.49475 142.311 8.83269C142.523 9.10726 142.534 9.23398 142.534 11.948V14.7888L141.357 15.3696C139.469 16.32 138.504 16.4679 137.963 15.887L137.708 15.6125L137.655 10.5435C137.602 5.68569 137.592 5.47448 137.401 5.32663C137.104 5.11542 136.627 5.1471 136.415 5.37943Z" fill="black"/>
<path d="M166.491 5.7492C165.865 6.41451 165.303 6.7102 164.391 6.86861C163.882 6.96365 163.691 7.04813 163.564 7.24878C163.288 7.6712 163.543 8.00913 164.253 8.18866C164.942 8.36818 165.282 8.57939 165.43 8.94901C165.515 9.13909 165.536 10.3219 165.526 12.6663L165.494 16.0878L165.133 16.3307C164.942 16.4575 164.539 16.6053 164.243 16.637C163.702 16.7109 163.32 16.9749 163.32 17.26C163.32 17.3551 163.437 17.5452 163.585 17.693L163.85 17.957L166.936 17.9254C169.842 17.8937 170.022 17.8831 170.171 17.693C170.542 17.1756 170.245 16.7426 169.418 16.6264C168.792 16.5419 168.347 16.3307 168.198 16.0562C168.135 15.9189 168.092 14.0497 168.092 10.7654V5.68584L167.827 5.43239C167.413 5.00997 167.106 5.0839 166.491 5.7492Z" fill="black"/>
<path d="M176.078 5.38861C175.176 5.62094 174.699 5.85327 173.925 6.43409C172.324 7.62741 171.38 9.57053 171.38 11.672C171.38 13.594 172.016 15.1253 173.331 16.4031C174.742 17.776 176.979 18.4201 178.91 18.0189C181.328 17.512 183.205 15.6956 183.841 13.2561C183.926 12.9182 184 12.2001 184 11.672C184 9.64445 183.152 7.82806 181.603 6.55025C180.119 5.32524 178.008 4.88171 176.078 5.38861ZM178.729 6.71922C179.662 7.03603 180.415 8.06039 180.712 9.40156C180.903 10.2886 180.967 12.2106 180.84 13.1505C180.596 14.9352 180.108 15.854 179.122 16.4137C178.602 16.6988 178.443 16.741 177.69 16.741C176.958 16.741 176.767 16.6988 176.279 16.4242C175.039 15.7484 174.455 14.2171 174.455 11.6298C174.455 9.04251 175.261 7.19444 176.587 6.72978C177.202 6.51857 178.114 6.50801 178.729 6.71922Z" fill="black"/>
<path d="M24.042 5.7513C22.5997 6.14204 21.4013 7.13472 20.7437 8.45477C20.1817 9.60585 20.0014 10.4084 20.0014 11.8235C20.0014 15.1817 21.6558 17.3994 24.5298 17.9169C27.7962 18.4977 30.5111 16.6602 31.1262 13.471C31.8368 9.8065 30.246 6.62782 27.2659 5.76186C26.5554 5.55065 24.7737 5.55065 24.042 5.7513ZM26.4599 7.71554C27.075 7.8845 27.9022 8.75046 28.2098 9.55305C28.5067 10.3556 28.6234 12.2354 28.4219 13.2175C28.0825 14.96 27.0856 15.9421 25.6646 15.9421C24.901 15.9421 24.3601 15.7414 23.8829 15.2768C22.3875 13.8511 22.2921 10.1233 23.7026 8.45477C24.3177 7.73666 25.4418 7.44097 26.4599 7.71554Z" fill="black"/>
<path d="M48.8369 5.7953C46.9492 6.33388 45.5599 7.80178 45.0084 9.81882C44.7539 10.7481 44.7539 12.6807 45.0084 13.6206C45.6023 15.8699 47.1188 17.3906 49.2187 17.8447C49.9822 18.0137 51.9548 17.9292 52.676 17.6969C53.4501 17.454 54.4895 16.7253 54.9561 16.1023C55.3485 15.5954 55.7303 14.74 55.8575 14.1275L55.9212 13.8318H54.5213C53.3441 13.8318 53.132 13.8529 53.132 13.9902C53.132 14.2225 52.6548 15.1201 52.4214 15.3313C52.3154 15.437 51.9866 15.6165 51.7003 15.7432C51.2867 15.9227 51.0534 15.965 50.4913 15.9227C48.8475 15.8066 47.8824 14.6977 47.5749 12.5856L47.5112 12.1421H51.7427H55.9742L56.0272 11.8464C56.059 11.688 56.0378 11.1811 55.9954 10.7165C55.7197 8.11859 54.4152 6.42893 52.1881 5.76362C51.4139 5.53129 49.6853 5.55241 48.8369 5.7953ZM51.7215 7.73842C52.4851 8.13971 53.0577 9.01623 53.1956 10.0195L53.2699 10.558H51.0534C49.0384 10.558 48.8051 10.5369 48.4975 10.3468C47.5431 9.77658 48.2112 8.16083 49.6217 7.63281C50.1095 7.45329 51.2655 7.50609 51.7215 7.73842Z" fill="black"/>
<path d="M64.0023 5.74961C63.3448 5.96082 62.8782 6.22483 62.3161 6.72117C62.0403 6.97462 61.7222 7.18582 61.6055 7.18582C61.351 7.18582 61.0965 6.80565 61.0116 6.30931L60.948 5.91858H59.6436H58.3285V11.7796V17.6406H59.6542H60.9798V14.5887C60.9798 11.3572 61.0435 10.7552 61.4571 9.84705C61.8601 8.98109 62.2949 8.50587 63.016 8.14682C64.2992 7.50264 65.5719 7.79833 66.0809 8.84381C66.3779 9.44575 66.4733 10.882 66.4839 15.0216L66.4945 17.6406H67.8202H69.1352L69.167 14.0184L69.1988 10.4067L69.5276 9.72032C69.9624 8.80157 70.3124 8.41083 71.0017 8.0729C71.5108 7.83001 71.6805 7.79833 72.3592 7.84057C73.3561 7.88281 73.8015 8.15738 74.2151 8.98109L74.5014 9.56191L74.5333 13.596L74.5651 17.6406H75.8907H77.2058V13.6488C77.2058 11.4522 77.1527 9.37183 77.0997 9.00221C76.7391 6.80565 75.5726 5.74961 73.3773 5.62288C72.2213 5.55952 71.638 5.73905 70.4821 6.48884C69.7397 6.96406 69.57 7.02742 69.0822 7.02742C68.658 7.02742 68.4565 6.96406 68.2232 6.78453C67.3535 6.0981 67.046 5.89745 66.5688 5.76017C65.9218 5.57008 64.5856 5.57008 64.0023 5.74961Z" fill="black"/>
<path d="M84.8203 5.80241C84.2264 5.9925 83.3886 6.53108 82.9962 6.96406C82.5932 7.40759 82.1054 7.10134 82.0099 6.35155L81.9463 5.91858H80.6418H79.3268V11.7796V17.6406H80.6418H81.9675L81.9993 14.1768C82.0311 10.8925 82.0417 10.6919 82.275 10.1427C82.5932 9.34015 83.2083 8.56924 83.8234 8.18906C84.2582 7.92505 84.4809 7.86169 85.149 7.84057C85.8596 7.80889 85.9975 7.83001 86.3262 8.05178C86.761 8.34747 87.1322 8.86493 87.2807 9.39295C87.3337 9.60416 87.3867 10.3962 87.3867 11.1565C87.3867 11.9169 87.4186 13.6805 87.461 15.085L87.5246 17.6406H88.8397H90.1547L90.0911 13.3848C90.0486 11.0509 89.9744 8.87549 89.9108 8.55868C89.6775 7.29143 88.9775 6.35155 87.9276 5.88689C87.2277 5.57008 85.6475 5.52784 84.8203 5.80241Z" fill="black"/>
<path d="M32.0383 6.45628C33.1094 9.1703 36.6303 17.7031 36.7576 17.8932C37.2242 18.6007 38.4438 18.6535 39.0483 17.9882C39.2074 17.8087 44.0115 6.20283 44.0115 6.00218C44.0115 5.94938 43.354 5.90714 42.5586 5.90714H41.0951L39.9922 9.1703C39.3877 10.955 38.815 12.5285 38.7195 12.6447C38.4756 12.9615 37.9666 13.1199 37.6166 12.9932C37.2348 12.8453 36.9697 12.3912 36.5773 11.1873C36.3864 10.6382 35.9092 9.22311 35.4956 8.04034L34.7638 5.90714H33.2897H31.8156L32.0383 6.45628Z" fill="black"/>
</svg>
