<?xml version="1.0" standalone="no"?>
<!DOCTYPE svg PUBLIC "-//W3C//DTD SVG 20010904//EN"
 "http://www.w3.org/TR/2001/REC-SVG-20010904/DTD/svg10.dtd">
<svg version="1.0" xmlns="http://www.w3.org/2000/svg"
 width="2382.000000pt" height="254.000000pt" viewBox="0 0 2382.000000 254.000000"
 preserveAspectRatio="xMidYMid meet">

<g transform="translate(0.000000,254.000000) scale(0.100000,-0.100000)"
fill="#000000" stroke="none">
<path d="M11845 2126 c-11 -8 -24 -29 -30 -47 -20 -60 -49 -65 -180 -35 -380
87 -669 -59 -715 -360 -26 -168 34 -309 176 -410 101 -73 205 -111 448 -165
170 -38 233 -56 280 -82 79 -44 114 -97 122 -187 11 -118 -26 -196 -116 -245
-51 -28 -62 -30 -155 -29 -109 0 -150 11 -268 70 -139 70 -299 202 -398 330
-49 63 -79 75 -117 47 -15 -11 -28 -27 -30 -36 -3 -17 194 -584 210 -604 6 -7
25 -13 43 -13 33 0 58 20 69 56 19 63 68 67 241 20 117 -33 292 -40 385 -17
194 48 324 174 361 349 6 33 9 98 7 154 -4 88 -9 106 -42 172 -75 153 -188
219 -517 300 -230 57 -294 80 -374 132 -69 45 -100 100 -100 181 0 85 35 135
129 183 67 34 73 35 181 35 109 0 113 -1 189 -39 90 -44 203 -146 289 -258 53
-70 78 -85 122 -74 55 14 52 38 -36 304 -80 245 -98 282 -138 282 -10 0 -26
-6 -36 -14z"/>
<path d="M16376 2115 c-81 -29 -122 -96 -114 -186 9 -87 79 -152 168 -153 201
-3 246 290 52 344 -47 13 -58 12 -106 -5z"/>
<path d="M9613 1974 l-113 -95 0 -95 c0 -139 -25 -183 -114 -199 l-36 -7 0
-94 0 -94 28 0 c34 0 86 -31 104 -62 10 -17 14 -104 18 -338 5 -315 5 -315 31
-371 36 -77 93 -132 165 -159 50 -18 73 -21 149 -18 54 3 107 12 133 23 l42
17 0 95 c0 87 -2 95 -17 88 -140 -54 -232 -10 -253 121 -6 33 -10 181 -10 331
l0 272 118 3 117 3 3 91 3 91 -62 7 c-100 10 -153 53 -170 137 -4 24 -8 113
-9 197 0 83 -3 152 -7 152 -5 -1 -59 -44 -120 -96z"/>
<path d="M717 2054 c-4 -4 -7 -362 -7 -796 l0 -788 130 0 130 0 0 434 0 435
23 27 c19 22 29 26 50 20 15 -3 33 -16 41 -29 8 -12 85 -217 172 -455 l157
-433 114 3 115 3 157 432 c87 238 166 444 175 458 20 30 65 34 89 7 15 -17 17
-63 17 -460 l0 -442 130 0 130 0 -2 793 -3 792 -183 0 -184 0 -180 -510 c-100
-284 -189 -520 -200 -532 -11 -12 -31 -24 -44 -27 -25 -7 -77 14 -91 36 -4 7
-89 243 -188 523 l-180 510 -181 3 c-99 1 -183 -1 -187 -4z"/>
<path d="M15627 1995 c-58 -66 -105 -92 -195 -108 -58 -11 -69 -16 -80 -40
-19 -39 3 -72 55 -82 50 -9 87 -29 112 -61 18 -22 21 -41 21 -114 0 -132 -15
-138 -170 -62 -130 63 -194 79 -264 63 -82 -18 -153 -57 -218 -118 -130 -124
-187 -256 -195 -458 -8 -207 42 -360 157 -475 102 -102 224 -146 380 -138 99
6 162 30 232 89 61 51 78 51 78 -1 0 -58 36 -94 88 -86 20 3 93 10 162 17 140
12 170 24 170 69 0 40 -22 58 -82 66 -34 5 -60 15 -75 30 l-23 23 0 701 c0
464 -3 708 -10 721 -8 14 -21 19 -53 19 -38 0 -46 -5 -90 -55z m-300 -595 c81
-29 187 -94 201 -125 8 -18 12 -101 12 -266 0 -270 0 -271 -80 -362 -60 -68
-117 -98 -195 -105 -56 -4 -72 -1 -119 22 -124 61 -196 210 -196 405 1 193 90
365 224 427 62 29 81 30 153 4z"/>
<path d="M12611 2006 c-6 -7 -20 -47 -30 -89 -23 -87 -60 -165 -106 -223 -33
-40 -124 -95 -180 -109 -43 -10 -55 -23 -55 -61 0 -52 27 -64 142 -64 l98 0 0
-385 c0 -246 4 -403 11 -437 20 -95 62 -153 139 -194 52 -28 205 -25 281 5
114 44 269 163 269 206 0 27 -29 55 -58 55 -12 0 -43 -13 -69 -28 -77 -45
-129 -62 -194 -62 -75 0 -96 11 -120 63 -17 39 -19 71 -19 410 l0 367 166 0
c200 0 224 8 224 77 0 22 -8 38 -26 52 -25 19 -40 21 -195 21 l-169 0 0 183
c0 208 -5 227 -64 227 -19 0 -39 -6 -45 -14z"/>
<path d="M10264 2001 c-11 -5 -32 -23 -46 -40 -62 -73 -41 -142 65 -206 86
-53 115 -81 127 -125 17 -65 0 -102 -104 -225 -66 -77 -76 -101 -54 -123 33
-33 110 1 188 84 146 155 207 347 149 474 -25 55 -81 115 -134 142 -44 23
-156 34 -191 19z"/>
<path d="M13573 1631 c-10 -10 -33 -35 -52 -55 -43 -48 -98 -75 -180 -90 -54
-10 -69 -17 -80 -38 -13 -23 -13 -29 2 -51 11 -17 30 -28 54 -33 51 -9 87 -28
112 -60 20 -26 21 -37 21 -360 0 -200 4 -353 11 -383 21 -100 78 -148 187
-158 84 -7 166 18 335 103 81 41 152 72 157 69 6 -4 10 -32 10 -64 0 -43 5
-65 19 -82 l19 -23 177 15 c182 17 196 21 209 65 11 36 -23 65 -85 75 -39 6
-60 15 -76 34 l-23 26 0 499 0 500 -25 16 c-35 23 -88 12 -110 -23 -45 -67
-114 -109 -214 -127 -56 -10 -68 -16 -79 -40 -19 -38 4 -73 55 -82 51 -9 87
-28 112 -60 20 -26 21 -38 21 -295 l0 -269 -111 -55 c-178 -90 -269 -104 -320
-49 l-24 26 -5 480 c-5 460 -6 480 -24 494 -28 20 -73 17 -93 -5z"/>
<path d="M16409 1595 c-59 -63 -112 -91 -198 -106 -48 -9 -66 -17 -78 -36 -26
-40 -2 -72 65 -89 65 -17 97 -37 111 -72 8 -18 10 -130 9 -352 l-3 -324 -34
-23 c-18 -12 -56 -26 -84 -29 -51 -7 -87 -32 -87 -59 0 -9 11 -27 25 -41 l25
-25 291 3 c274 3 291 4 305 22 35 49 7 90 -71 101 -59 8 -101 28 -115 54 -6
13 -10 190 -10 501 l0 481 -25 24 c-39 40 -68 33 -126 -30z"/>
<path d="M17313 1630 c-85 -22 -130 -44 -203 -99 -151 -113 -240 -297 -240
-496 0 -182 60 -327 184 -448 133 -130 344 -191 526 -153 228 48 405 220 465
451 8 32 15 100 15 150 0 192 -80 364 -226 485 -140 116 -339 158 -521 110z
m250 -126 c88 -30 159 -127 187 -254 18 -84 24 -266 12 -355 -23 -169 -69
-256 -162 -309 -49 -27 -64 -31 -135 -31 -69 0 -87 4 -133 30 -117 64 -172
209 -172 454 0 245 76 420 201 464 58 20 144 21 202 1z"/>
<path d="M2977 1595 c-136 -37 -249 -131 -311 -256 -53 -109 -70 -185 -70
-319 0 -318 156 -528 427 -577 308 -55 564 119 622 421 67 347 -83 648 -364
730 -67 20 -235 20 -304 1z m228 -186 c58 -16 136 -98 165 -174 28 -76 39
-254 20 -347 -32 -165 -126 -258 -260 -258 -72 0 -123 19 -168 63 -141 135
-150 488 -17 646 58 68 164 96 260 70z"/>
<path d="M5315 1591 c-178 -51 -309 -190 -361 -381 -24 -88 -24 -271 0 -360
56 -213 199 -357 397 -400 72 -16 258 -8 326 14 73 23 171 92 215 151 37 48
73 129 85 187 l6 28 -132 0 c-111 0 -131 -2 -131 -15 0 -22 -45 -107 -67 -127
-10 -10 -41 -27 -68 -39 -39 -17 -61 -21 -114 -17 -155 11 -246 116 -275 316
l-6 42 399 0 399 0 5 28 c3 15 1 63 -3 107 -26 246 -149 406 -359 469 -73 22
-236 20 -316 -3z m272 -184 c72 -38 126 -121 139 -216 l7 -51 -209 0 c-190 0
-212 2 -241 20 -90 54 -27 207 106 257 46 17 155 12 198 -10z"/>
<path d="M6745 1596 c-62 -20 -106 -45 -159 -92 -26 -24 -56 -44 -67 -44 -24
0 -48 36 -56 83 l-6 37 -123 0 -124 0 0 -555 0 -555 125 0 125 0 0 289 c0 306
6 363 45 449 38 82 79 127 147 161 121 61 241 33 289 -66 28 -57 37 -193 38
-585 l1 -248 125 0 124 0 3 343 3 342 31 65 c41 87 74 124 139 156 48 23 64
26 128 22 94 -4 136 -30 175 -108 l27 -55 3 -382 3 -383 125 0 124 0 0 378 c0
208 -5 405 -10 440 -34 208 -144 308 -351 320 -109 6 -164 -11 -273 -82 -70
-45 -86 -51 -132 -51 -40 0 -59 6 -81 23 -82 65 -111 84 -156 97 -61 18 -187
18 -242 1z"/>
<path d="M8708 1591 c-56 -18 -135 -69 -172 -110 -38 -42 -84 -13 -93 58 l-6
41 -123 0 -124 0 0 -555 0 -555 124 0 125 0 3 328 c3 311 4 330 26 382 30 76
88 149 146 185 41 25 62 31 125 33 67 3 80 1 111 -20 41 -28 76 -77 90 -127 5
-20 10 -95 10 -167 0 -72 3 -239 7 -372 l6 -242 124 0 124 0 -6 403 c-4 221
-11 427 -17 457 -22 120 -88 209 -187 253 -66 30 -215 34 -293 8z"/>
<path d="M3731 1528 c101 -257 433 -1065 445 -1083 44 -67 159 -72 216 -9 15
17 468 1116 468 1135 0 5 -62 9 -137 9 l-138 0 -104 -309 c-57 -169 -111 -318
-120 -329 -23 -30 -71 -45 -104 -33 -36 14 -61 57 -98 171 -18 52 -63 186
-102 298 l-69 202 -139 0 -139 0 21 -52z"/>
</g>
</svg>
