<svg width="233" height="19" viewBox="0 0 233 19" fill="none" xmlns="http://www.w3.org/2000/svg">
<path d="M199.043 0.0833197C198.609 0.208412 197.999 0.906847 197.906 1.37594C197.678 2.62687 198.454 3.61719 199.673 3.61719C200.5 3.61719 201.172 3.08554 201.389 2.24117C201.762 0.8443 200.469 -0.333656 199.043 0.0833197Z" fill="black"/>
<path d="M154.818 1.27263C154.249 1.95022 153.784 2.21083 152.823 2.40889C151.954 2.59653 151.696 2.89884 151.965 3.40963C152.027 3.5243 152.264 3.64939 152.585 3.71194C153.65 3.94127 153.929 4.3374 153.929 5.58833C153.929 6.37016 153.908 6.44313 153.67 6.59949C153.412 6.76628 153.371 6.75586 152.192 6.19294C150.621 5.43196 150.114 5.31729 149.266 5.53621C147.395 6.02615 145.907 7.64193 145.338 9.84148C144.904 11.4781 145.08 13.5943 145.762 15.0328C147.127 17.9204 150.91 18.869 153.184 16.8988C153.722 16.4401 153.929 16.4818 153.929 17.0656C153.929 17.4826 154.198 17.8995 154.477 17.8995C154.539 17.8995 155.324 17.8266 156.203 17.7327C157.961 17.5555 158.271 17.4409 158.271 16.9718C158.271 16.5756 158.012 16.3671 157.351 16.2838C156.327 16.1482 156.41 16.8467 156.41 8.48631C156.41 0.282314 156.451 0.699289 155.697 0.699289C155.355 0.699289 155.252 0.772261 154.818 1.27263ZM152.43 7.84C152.947 8.09018 153.474 8.41334 153.619 8.5697L153.877 8.85116L153.908 11.4051C153.939 14.3135 153.939 14.3448 153.05 15.3664C152.43 16.0857 151.706 16.4401 150.89 16.4401C149.515 16.4297 148.512 15.4915 147.995 13.7298C147.788 13.0418 147.757 11.28 147.943 10.5399C148.326 8.96583 149.215 7.84 150.383 7.4126C150.921 7.22496 151.344 7.30835 152.43 7.84Z" fill="black"/>
<path d="M92.0369 1.81719L90.8687 2.80751V3.7874C90.8687 5.23639 90.5896 5.73676 89.7109 5.8827L89.3181 5.94525V6.91472V7.89461H89.6178C90.0314 7.89461 90.5896 8.31159 90.7343 8.72856C90.817 8.97875 90.8584 10.042 90.8584 12.0227C90.8687 15.2334 90.9204 15.567 91.489 16.4739C91.8301 17.016 92.5331 17.5267 93.1947 17.7144C93.8253 17.8916 94.9728 17.8395 95.6241 17.6101L96.1926 17.4121L96.2237 16.4113C96.234 15.8484 96.234 15.4002 96.2237 15.4002C96.203 15.4002 96.0066 15.4731 95.7791 15.5565C94.8177 15.9005 94.0114 15.6295 93.6082 14.8268C93.4221 14.4411 93.4015 14.1597 93.3704 11.1574L93.3291 7.90504L94.5593 7.87376L95.7791 7.84249L95.8102 6.89387L95.8412 5.94525L95.1692 5.89313C94.3525 5.82016 93.8563 5.5387 93.5979 4.99663C93.4325 4.67348 93.4015 4.28777 93.3704 2.70327C93.3498 1.66083 93.2981 0.806026 93.2671 0.806026C93.2257 0.816452 92.6675 1.2647 92.0369 1.81719Z" fill="black"/>
<path d="M0.0206755 9.26857L0.0516887 17.5351L1.37492 17.5664L2.68781 17.5977V13.0526C2.68781 10.1546 2.72916 8.43462 2.79119 8.30953C3.07031 7.77788 3.69057 7.86128 3.96969 8.45547C4.05239 8.63268 4.77603 10.6029 5.58238 12.8441C6.38872 15.075 7.11236 17.066 7.18473 17.2537L7.32946 17.5872H8.45627H9.58308L11.1131 13.3341C11.9504 10.999 12.7361 8.86202 12.8498 8.59098C13.0566 8.08019 13.2737 7.89255 13.6251 7.89255C14.1007 7.89255 14.111 7.96552 14.1627 12.8858L14.2144 17.5351H15.5066H16.7988L16.8298 9.26857L16.8505 1.01245L14.9174 1.0333L12.9739 1.06458L11.1544 6.27677C9.21092 11.8642 9.07653 12.1665 8.42526 12.1665C7.81533 12.1665 7.70161 11.8955 5.73744 6.29762L3.88699 1.01245H1.94349H0L0.0206755 9.26857Z" fill="black"/>
<path d="M98.7668 1.32344C98.467 1.44853 98.0328 1.9906 97.9501 2.35545C97.8364 2.8871 98.1258 3.36662 98.8391 3.80444C99.7799 4.37778 100.152 4.73221 100.276 5.17004C100.462 5.86847 100.193 6.40011 99.0666 7.59892C98.7047 7.9742 98.4153 8.32863 98.4153 8.38075C98.4256 8.59966 98.6324 8.75603 98.9115 8.7456C100.317 8.7039 102.344 5.93102 102.344 4.05463C102.344 2.54309 100.979 1.20877 99.4594 1.22962C99.201 1.22962 98.8908 1.27132 98.7668 1.32344Z" fill="black"/>
<path d="M104.814 1.40779C104.525 1.64755 104.494 2.23132 104.763 2.42938C104.866 2.49193 105.228 2.58574 105.579 2.62744C106.489 2.72126 106.851 2.85678 107.151 3.21121L107.409 3.53436V9.39287C107.409 15.8456 107.44 15.5224 106.758 15.8873C106.572 15.9811 106.086 16.0853 105.672 16.127C104.814 16.2104 104.587 16.3668 104.587 16.8567C104.587 17.5343 104.535 17.5343 108.681 17.5656C112.743 17.6073 113.146 17.5656 113.26 17.1173C113.364 16.7108 113.219 16.3355 112.929 16.2313C112.785 16.1687 112.381 16.127 112.03 16.127C111.224 16.127 110.583 15.8456 110.366 15.4077C110.138 14.9699 110.118 10.5917 110.345 10.3623C110.459 10.2581 110.955 10.206 112.34 10.1539C114.863 10.0705 116.072 9.789 117.251 9.02802C118.719 8.06897 119.349 6.08834 118.781 4.21195C118.388 2.9506 117.251 1.99155 115.628 1.585C114.459 1.29312 113.146 1.22015 109.104 1.22015C105.321 1.22015 105.042 1.23057 104.814 1.40779ZM113.177 2.67956C114.18 2.81508 114.873 3.12781 115.359 3.68031C116.165 4.60808 116.227 6.39065 115.493 7.49563C114.925 8.36086 113.88 8.72571 111.916 8.72571C110.81 8.72571 110.541 8.69444 110.386 8.5485C110.221 8.39213 110.2 8.17322 110.2 6.03622C110.2 4.09728 110.231 3.63861 110.366 3.34672C110.696 2.63787 111.472 2.46065 113.177 2.67956Z" fill="black"/>
<path d="M189.615 1.39705C189.491 1.51172 189.336 1.87658 189.232 2.26228C189.036 3.08581 188.56 4.14909 188.188 4.58692C187.775 5.08729 187.072 5.55639 186.524 5.70233C185.904 5.86912 185.666 6.07761 185.666 6.43203C185.666 6.94283 185.924 7.0575 187.092 7.0575H188.136L188.168 11.3002C188.219 16.0746 188.25 16.2935 188.943 17.0753C189.408 17.5966 189.729 17.7633 190.452 17.878C191.765 18.0865 193.305 17.5444 194.67 16.4082C195.466 15.741 195.58 15.4804 195.228 15.126C195.094 14.9905 194.928 14.8758 194.877 14.8758C194.815 14.8758 194.36 15.0947 193.864 15.3553C192.406 16.1163 191.31 16.085 190.866 15.2719C190.7 14.9592 190.68 14.5631 190.649 10.9875L190.618 7.0575H192.478H194.339L194.546 6.78646C194.825 6.42161 194.815 6.19227 194.515 5.83784L194.267 5.54596L192.447 5.51469L190.628 5.48341V3.5549C190.628 1.77233 190.618 1.62639 190.421 1.42833C190.163 1.16772 189.894 1.16772 189.615 1.39705Z" fill="black"/>
<path d="M123.34 5.49625C122.823 6.11129 122.078 6.52827 121.334 6.61166C120.786 6.68463 120.331 6.99736 120.331 7.32052C120.331 7.54986 120.714 7.89386 120.983 7.89386C121.107 7.89386 121.406 7.98768 121.644 8.09193C122.388 8.43593 122.399 8.47763 122.399 12.2721V15.6183L122.161 15.8581C121.944 16.077 121.138 16.3376 120.693 16.3376C120.61 16.3376 120.466 16.4523 120.373 16.5982C120.155 16.9318 120.3 17.3384 120.703 17.4843C121.045 17.6198 126.337 17.6198 126.679 17.4843C127.04 17.3488 127.216 16.9631 127.061 16.6608C126.937 16.4314 126.813 16.3897 125.976 16.2855C125.614 16.2334 125.386 16.1291 125.169 15.9206L124.88 15.6288V12.2408V8.85291L125.314 8.47763C125.883 7.98768 126.348 7.86259 127.061 8.00853C128.147 8.23787 128.446 8.26914 128.86 8.17532C129.945 7.94598 130.369 6.66378 129.677 5.73601C128.974 4.80824 127.361 5.07928 125.934 6.39275C125.076 7.17458 124.942 7.13288 124.901 6.12172C124.859 5.20437 124.714 4.97503 124.156 4.97503C123.825 4.97503 123.722 5.048 123.34 5.49625Z" fill="black"/>
<path d="M161.765 5.64195C161.083 6.31953 160.431 6.64269 159.718 6.64269C159.315 6.64269 158.994 6.91372 158.994 7.26815C158.994 7.65385 159.201 7.85192 159.687 7.92489C159.904 7.96659 160.235 8.09168 160.421 8.20635C161.041 8.59205 161.062 8.74841 161.062 12.7618C161.062 16.0663 161.083 16.4312 161.258 16.8065C161.631 17.63 162.168 17.9219 163.295 17.9219C164.236 17.9115 164.99 17.6613 166.655 16.7856C167.451 16.3582 168.03 16.1185 168.133 16.1602C168.257 16.2123 168.298 16.3686 168.298 16.8899C168.298 17.9531 168.309 17.9531 170.428 17.7447C171.389 17.6508 172.247 17.5257 172.351 17.4736C172.857 17.1922 172.589 16.3374 171.989 16.3374C171.544 16.3374 170.965 16.0351 170.81 15.7119C170.707 15.5138 170.676 14.2108 170.676 10.3225C170.676 5.36049 170.666 5.18327 170.48 5.07903C170.159 4.91224 169.663 4.95394 169.467 5.17285C169.363 5.27709 169.115 5.54813 168.919 5.75661C168.495 6.22571 167.895 6.5176 167.192 6.60099C166.52 6.69481 166.231 6.88245 166.231 7.25773C166.231 7.61216 166.479 7.84149 166.954 7.93531C167.151 7.96659 167.471 8.09168 167.657 8.20635C168.247 8.5712 168.298 8.84223 168.298 11.6881C168.298 13.8981 168.278 14.2629 168.133 14.4089C167.895 14.6382 166.489 15.3471 165.735 15.5972C164.939 15.8683 164.163 15.8787 163.863 15.6285C163.739 15.5347 163.595 15.2637 163.543 15.0343C163.491 14.805 163.44 12.522 163.44 9.95764C163.44 4.79757 163.46 4.97479 162.778 4.97479C162.489 4.97479 162.313 5.08945 161.765 5.64195Z" fill="black"/>
<path d="M199.425 5.50784C198.867 6.1333 198.154 6.52943 197.42 6.61282C196.872 6.68579 196.417 6.99853 196.417 7.32168C196.417 7.55102 196.799 7.89502 197.068 7.89502C197.192 7.89502 197.492 7.98884 197.73 8.09309C198.474 8.43709 198.485 8.47879 198.485 12.2733V15.6195L198.247 15.8593C198.03 16.0782 197.223 16.3388 196.779 16.3388C196.696 16.3388 196.551 16.4534 196.458 16.5994C196.241 16.933 196.386 17.3395 196.789 17.4855C197.161 17.6314 202.299 17.621 202.713 17.475C203.209 17.2978 203.281 16.6828 202.816 16.4222C202.733 16.3805 202.413 16.2971 202.082 16.2345C201.731 16.1616 201.4 16.026 201.234 15.8697L200.966 15.6195V10.5532V5.48699L200.707 5.2368C200.304 4.81983 199.984 4.8928 199.425 5.50784Z" fill="black"/>
<path d="M221.465 5.30601C220.721 6.17123 219.904 6.64033 219.129 6.64033C218.664 6.64033 218.333 6.90094 218.333 7.25537C218.333 7.57852 218.612 7.89126 218.912 7.89126C219.294 7.90168 219.987 8.29781 220.194 8.64181C220.39 8.96497 220.401 9.16303 220.401 12.1861C220.401 14.3544 220.359 15.4698 220.287 15.647C220.142 15.9493 219.687 16.1891 219.067 16.2933C218.519 16.3871 218.312 16.5852 218.354 17.0022C218.405 17.5442 218.602 17.5859 221.589 17.5859C224.598 17.5859 224.773 17.5547 224.825 16.9813C224.877 16.5018 224.732 16.3767 224.06 16.2933C222.778 16.1474 222.778 16.1265 222.778 12.1236C222.778 9.25685 222.799 8.93369 222.964 8.74606C223.192 8.47502 225.662 7.50555 226.355 7.42216C226.748 7.37004 226.965 7.39088 227.203 7.51598C227.833 7.84956 227.844 7.92253 227.844 11.988C227.844 15.5219 227.833 15.6783 227.637 15.8972C227.42 16.1265 226.841 16.335 226.386 16.335C225.88 16.335 225.611 16.9084 225.921 17.3358C226.066 17.5234 226.231 17.5338 228.846 17.5651C230.573 17.5859 231.741 17.5547 231.906 17.4921C232.062 17.4296 232.237 17.2628 232.31 17.1273C232.496 16.7103 232.217 16.3767 231.596 16.2829C231.069 16.2099 230.594 16.0014 230.459 15.7929C230.418 15.72 230.356 13.6872 230.325 11.2792C230.273 6.49439 230.263 6.45269 229.632 5.78553C228.764 4.87861 227.544 5.0037 224.649 6.31717C224.008 6.60906 223.398 6.84882 223.285 6.84882C222.975 6.84882 222.778 6.44227 222.778 5.78553C222.778 5.11837 222.644 4.97243 222.065 4.97243C221.838 4.97243 221.662 5.06625 221.465 5.30601Z" fill="black"/>
<path d="M136.2 5.18068C133.946 5.48298 132.003 7.11961 131.217 9.36086C130.855 10.3824 130.772 12.1025 131.02 13.1032C131.589 15.3757 133.315 17.1791 135.476 17.7421C136.282 17.961 137.781 17.961 138.577 17.7421C140.138 17.3251 141.699 16.0846 142.423 14.719C143.384 12.8843 143.436 10.518 142.557 8.68327C141.42 6.28566 138.794 4.83667 136.2 5.18068ZM138.267 6.78603C139.477 7.34895 140.035 8.62073 140.149 11.0705C140.273 14.0101 139.497 15.9803 138.019 16.4182C137.513 16.5745 136.541 16.5745 136.034 16.4182C134.556 15.9803 133.781 14.0101 133.905 11.0705C134.018 8.62073 134.577 7.34895 135.786 6.78603C136.51 6.44203 137.544 6.44203 138.267 6.78603Z" fill="black"/>
<path d="M178.946 5.18242C176.517 5.56812 174.821 7.20475 174.18 9.77958C173.87 10.9992 173.932 12.8235 174.325 13.9285C174.956 15.7319 176.289 17.0454 178.088 17.6291C179.866 18.2129 182.399 17.9002 183.888 16.8994C184.529 16.472 184.725 16.1489 184.549 15.7632C184.384 15.3983 184.001 15.3358 183.412 15.586C182.771 15.857 181.965 16.0238 181.272 16.0238C178.419 16.0238 176.672 13.9285 176.672 10.5093C176.672 9.13327 176.868 8.33059 177.375 7.59046C177.881 6.82948 178.44 6.53759 179.339 6.53759C180.548 6.53759 180.983 6.95457 181.489 8.62247C181.665 9.20624 181.861 9.59194 182.099 9.85255C182.43 10.2278 182.471 10.2383 183.174 10.2383C183.877 10.2383 183.919 10.2278 184.28 9.85255C184.611 9.52939 184.673 9.39388 184.715 8.8935C184.787 8.0387 184.58 7.44451 184.001 6.7982C182.916 5.60982 180.724 4.91139 178.946 5.18242Z" fill="black"/>
<path d="M209.639 5.18199C208.212 5.4009 207.065 6.02637 206.041 7.13135C204.863 8.3927 204.336 9.77915 204.336 11.593C204.336 13.1566 204.718 14.3033 205.648 15.5543C206.413 16.5863 207.768 17.4619 209.081 17.7851C209.804 17.9727 211.252 17.9414 212.037 17.7434C214.87 17.0032 216.834 14.2408 216.648 11.2281C216.503 8.85138 215.19 6.77692 213.205 5.77618C212.203 5.26539 210.714 5.0152 209.639 5.18199ZM211.789 6.79777C212.616 7.21475 213.164 8.07997 213.443 9.39345C213.681 10.5297 213.65 12.9377 213.381 13.9906C212.937 15.7106 212.006 16.5446 210.518 16.5446C209.267 16.5446 208.553 16.138 208.005 15.0956C207.561 14.2512 207.375 13.1775 207.375 11.5096C207.375 9.41429 207.685 8.24676 208.471 7.37111C209.029 6.74565 209.525 6.53716 210.487 6.53716C211.117 6.53716 211.365 6.58928 211.789 6.79777Z" fill="black"/>
<path d="M23.477 5.76616C22.1641 6.12059 20.8926 7.12133 20.2827 8.29929C19.7348 9.31045 19.497 10.3842 19.5073 11.7498C19.5073 13.1362 19.6831 14.0327 20.1793 15.0439C21.089 16.9203 23.1359 18.0252 25.4102 17.8585C27.7879 17.6812 29.3695 16.4616 30.1552 14.1786C30.4137 13.4281 30.4343 13.2404 30.4343 11.8019C30.4343 10.3842 30.4033 10.1548 30.1552 9.39385C29.5246 7.47576 28.2634 6.23526 26.4543 5.75574C25.741 5.55767 24.2007 5.5681 23.477 5.76616ZM25.7513 7.7051C25.9788 7.76764 26.3406 7.98655 26.568 8.17419C27.4881 8.97687 27.8602 10.1444 27.7879 12.0625C27.7155 13.8555 27.302 14.8354 26.3302 15.4817C25.9891 15.711 25.772 15.7736 25.1207 15.7944C24.211 15.8361 23.7562 15.6693 23.1772 15.0751C21.6576 13.5115 21.854 9.25833 23.4977 8.08037C24.1593 7.60085 24.9863 7.46533 25.7513 7.7051Z" fill="black"/>
<path d="M47.7603 5.76529C45.8478 6.27608 44.4109 7.74592 43.8733 9.76825C43.6356 10.6752 43.6252 12.5933 43.863 13.521C44.5039 16.002 46.1063 17.451 48.5667 17.795C51.4716 18.1912 53.932 16.6067 54.4488 14.0214L54.5109 13.7295H53.167H51.8334L51.7093 14.1986C51.5543 14.8032 50.841 15.5434 50.2827 15.6997C49.6418 15.8769 48.7941 15.8352 48.2772 15.5955C47.2124 15.116 46.6025 14.1256 46.3751 12.4994L46.313 12.0616H50.4378H54.5626L54.6142 11.7697C54.6453 11.6134 54.6246 11.1026 54.5729 10.6439C54.2834 8.0378 52.9602 6.3282 50.81 5.75486C50.045 5.5568 48.515 5.5568 47.7603 5.76529ZM49.9829 7.58955C50.903 7.81889 51.7093 8.84048 51.8541 9.96632L51.9264 10.5084L49.6211 10.4771L47.3261 10.4458L47.078 10.154C46.6232 9.61189 46.8609 8.75709 47.6673 8.06908C48.2979 7.51658 49.0732 7.36022 49.9829 7.58955Z" fill="black"/>
<path d="M62.5123 5.71385C61.9334 5.84937 61.3648 6.17253 60.7859 6.69375C60.4964 6.95436 60.176 7.16284 60.0622 7.16284C59.8038 7.16284 59.5557 6.79799 59.473 6.29762L59.411 5.91192H58.1394H56.8575L56.8782 11.7183L56.9092 17.5351L58.1808 17.5664L59.442 17.5977V14.5329C59.442 12.8441 59.4937 11.2179 59.5454 10.9052C59.8865 9.12263 61.1891 7.78831 62.6157 7.78831C63.2876 7.78831 63.6391 7.92382 64.0629 8.33037C64.6729 8.92457 64.7142 9.22687 64.7969 13.5947L64.8693 17.5351L66.1305 17.5664L67.3917 17.5977L67.4227 13.97L67.4537 10.3423L67.7432 9.71682C68.3428 8.43462 69.0044 7.90298 70.1415 7.80916C71.258 7.72576 72.0127 8.14274 72.4365 9.09136C72.6019 9.46663 72.6226 9.92531 72.6536 13.553L72.6846 17.5977L73.9458 17.5664L75.207 17.5351V13.209C75.207 9.31027 75.1864 8.82032 75.0209 8.2574C74.473 6.45399 73.0361 5.50537 71.0202 5.62003C70.1519 5.67216 69.5419 5.91192 68.4461 6.62078C67.4537 7.27751 66.9885 7.23581 66.0685 6.41229C65.2828 5.72428 63.7528 5.42197 62.5123 5.71385Z" fill="black"/>
<path d="M82.981 5.71385C82.4124 5.84937 81.7921 6.19338 81.1925 6.70417C80.9031 6.95436 80.5723 7.16284 80.4586 7.16284C80.2105 7.16284 79.9107 6.61035 79.9107 6.18295V5.91192H78.6185H77.3262L77.3469 11.7183L77.3779 17.5351H78.6185H79.859L79.9107 14.1472C79.9624 11.0199 79.983 10.7176 80.1898 10.1651C80.7377 8.6848 81.8231 7.79873 83.0844 7.78831C83.9837 7.78831 84.4903 8.08019 84.9038 8.88287C85.1105 9.26857 85.1312 9.52918 85.1933 12.1144C85.2346 13.6572 85.2656 15.5336 85.276 16.2633L85.2863 17.5977L86.5578 17.5664L87.819 17.5351L87.788 13.2611C87.7467 7.99679 87.6743 7.57982 86.6199 6.51653C86.2477 6.14125 85.9893 5.98489 85.4414 5.8181C84.7074 5.58876 83.6943 5.54706 82.981 5.71385Z" fill="black"/>
<path d="M31.0442 6.03752C31.0753 6.11049 32.1194 8.71659 33.3806 11.8335C34.6314 14.94 35.7066 17.5877 35.7686 17.7024C36.1614 18.4425 37.4536 18.5155 38.0636 17.8379C38.1566 17.7233 39.2834 15.0442 40.5756 11.8648C41.8575 8.68532 42.9326 6.04795 42.9636 6.00625C42.9947 5.95413 42.3537 5.91243 41.537 5.91243H40.0587L39.087 8.85211C37.9705 12.2713 37.8155 12.6362 37.4123 12.8446C36.9884 13.074 36.7403 13.0427 36.3888 12.7091C36.1304 12.4694 35.9133 11.9065 34.9933 9.20654C34.3937 7.42397 33.9078 5.96455 33.9078 5.9437C33.9078 5.92286 33.2565 5.91243 32.4502 5.91243C31.3234 5.91243 31.0029 5.9437 31.0442 6.03752Z" fill="black"/>
</svg>
