<?xml version="1.0" standalone="no"?>
<!DOCTYPE svg PUBLIC "-//W3C//DTD SVG 20010904//EN"
 "http://www.w3.org/TR/2001/REC-SVG-20010904/DTD/svg10.dtd">
<svg version="1.0" xmlns="http://www.w3.org/2000/svg"
 width="2382.000000pt" height="254.000000pt" viewBox="0 0 2382.000000 254.000000"
 preserveAspectRatio="xMidYMid meet">

<g transform="translate(0.000000,254.000000) scale(0.100000,-0.100000)"
fill="#000000" stroke="none">
<path d="M19964 2169 c-42 -12 -101 -79 -110 -124 -22 -120 53 -215 171 -215
80 0 145 51 166 132 36 134 -89 247 -227 207z"/>
<path d="M15686 2055 c-55 -65 -100 -90 -193 -109 -84 -18 -109 -47 -83 -96 6
-11 29 -23 60 -29 103 -22 130 -60 130 -180 0 -75 -2 -82 -25 -97 -25 -16 -29
-15 -143 39 -152 73 -201 84 -283 63 -181 -47 -325 -202 -380 -413 -42 -157
-25 -360 41 -498 132 -277 498 -368 718 -179 52 44 72 40 72 -16 0 -40 26 -80
53 -80 6 0 82 7 167 16 170 17 200 28 200 73 0 38 -25 58 -89 66 -99 13 -91
-54 -91 748 0 787 4 747 -69 747 -33 0 -43 -7 -85 -55z m-231 -630 c50 -24
101 -55 115 -70 l25 -27 3 -245 c3 -279 3 -282 -83 -380 -60 -69 -130 -103
-209 -103 -133 1 -230 91 -280 260 -20 66 -23 235 -5 306 37 151 123 259 236
300 52 18 93 10 198 -41z"/>
<path d="M9613 2003 l-113 -95 0 -94 c0 -139 -27 -187 -112 -201 l-38 -6 0
-93 0 -94 29 0 c40 0 94 -40 108 -80 8 -24 12 -126 12 -316 1 -308 6 -340 61
-427 33 -52 101 -101 165 -119 61 -17 172 -12 235 10 l55 19 3 96 c1 54 1 97
0 97 -2 0 -21 -7 -43 -15 -93 -33 -171 -7 -210 70 -18 37 -20 64 -23 352 l-4
312 119 3 118 3 3 91 3 91 -65 5 c-79 7 -127 34 -152 86 -16 31 -19 68 -22
220 -2 100 -7 182 -10 182 -4 -1 -58 -44 -119 -97z"/>
<path d="M712 1288 l3 -793 128 -3 127 -3 0 436 c0 278 4 443 10 455 27 51 87
43 114 -14 8 -17 78 -206 156 -421 78 -214 148 -405 155 -423 l14 -32 109 0
109 0 148 408 c81 224 157 429 168 455 20 49 41 67 75 67 46 0 47 -7 52 -479
l5 -446 125 0 125 0 3 793 2 792 -187 -2 -188 -3 -176 -500 c-188 -536 -201
-565 -264 -565 -59 0 -70 26 -260 563 l-179 507 -188 0 -188 0 2 -792z"/>
<path d="M10264 2050 c-29 -12 -71 -64 -79 -99 -11 -51 17 -97 86 -139 91 -55
127 -89 139 -131 18 -67 -8 -118 -117 -233 -35 -36 -63 -70 -63 -75 1 -21 21
-36 48 -35 136 4 332 270 332 450 0 145 -132 273 -279 271 -25 0 -55 -4 -67
-9z"/>
<path d="M10849 2042 c-28 -23 -31 -79 -5 -98 10 -6 45 -15 79 -19 88 -9 123
-22 152 -56 l25 -31 0 -562 c0 -619 3 -588 -63 -623 -18 -9 -65 -19 -105 -23
-83 -8 -105 -23 -105 -70 0 -65 -5 -65 396 -68 393 -4 432 0 443 43 10 39 -4
75 -32 85 -14 6 -53 10 -87 10 -78 0 -140 27 -161 69 -22 42 -24 462 -2 484
11 10 59 15 193 20 244 8 361 35 475 108 142 92 203 282 148 462 -38 121 -148
213 -305 252 -113 28 -240 35 -631 35 -366 0 -393 -1 -415 -18z m809 -122 c97
-13 164 -43 211 -96 78 -89 84 -260 13 -366 -55 -83 -156 -118 -346 -118 -107
0 -133 3 -148 17 -16 15 -18 36 -18 241 0 186 3 230 16 258 32 68 107 85 272
64z"/>
<path d="M19052 2043 c-12 -11 -27 -46 -37 -83 -19 -79 -65 -181 -101 -223
-40 -48 -108 -93 -161 -107 -60 -16 -83 -36 -83 -70 0 -49 25 -60 138 -60
l101 0 3 -407 c5 -458 8 -479 75 -554 45 -50 76 -66 146 -77 127 -20 276 32
408 141 77 64 88 89 54 123 -13 13 -29 24 -34 24 -6 0 -50 -21 -98 -46 -141
-73 -247 -70 -290 8 -16 30 -18 68 -21 411 l-3 377 180 0 180 0 20 26 c27 35
26 57 -3 91 l-24 28 -176 3 -176 3 0 185 c0 171 -1 185 -20 204 -25 25 -51 25
-78 3z"/>
<path d="M12641 1650 c-50 -59 -122 -99 -194 -107 -53 -7 -97 -37 -97 -68 0
-22 37 -55 63 -55 12 0 41 -9 64 -19 72 -33 73 -37 73 -401 l0 -321 -23 -23
c-21 -21 -99 -46 -142 -46 -8 0 -22 -11 -31 -25 -21 -32 -7 -71 32 -85 33 -13
545 -13 578 0 35 13 52 50 37 79 -12 22 -24 26 -105 36 -35 5 -57 15 -78 35
l-28 28 0 325 0 325 42 36 c55 47 100 59 169 45 105 -22 134 -25 174 -16 105
22 146 145 79 234 -68 89 -224 63 -362 -63 -83 -75 -96 -71 -100 26 -4 88 -18
110 -72 110 -32 0 -42 -7 -79 -50z"/>
<path d="M16358 1636 c-66 -65 -129 -96 -198 -96 -39 0 -70 -26 -70 -60 0 -37
20 -56 67 -63 21 -4 53 -16 71 -27 60 -37 62 -52 62 -437 0 -317 2 -352 19
-388 36 -79 88 -107 197 -107 91 1 164 25 325 109 77 41 133 64 143 60 12 -5
16 -20 16 -70 0 -102 1 -102 206 -82 93 9 176 21 186 26 49 27 23 109 -35 109
-43 0 -99 29 -114 60 -10 19 -13 144 -13 517 0 476 -1 493 -19 503 -31 16 -79
12 -98 -9 -10 -10 -34 -36 -53 -56 -41 -45 -99 -73 -167 -81 -65 -9 -93 -27
-93 -63 0 -34 24 -56 70 -65 19 -3 50 -15 68 -26 57 -35 62 -61 62 -334 0
-212 -2 -247 -16 -261 -23 -22 -159 -90 -232 -114 -77 -26 -152 -27 -181 -3
-12 9 -26 35 -31 57 -5 22 -10 241 -10 487 0 495 2 478 -64 478 -28 0 -45 -11
-98 -64z"/>
<path d="M20001 1649 c-54 -60 -123 -98 -194 -106 -53 -7 -97 -37 -97 -68 0
-22 37 -55 63 -55 12 0 41 -9 64 -19 72 -33 73 -37 73 -401 l0 -321 -23 -23
c-21 -21 -99 -46 -142 -46 -8 0 -22 -11 -31 -25 -21 -32 -7 -71 32 -85 36 -14
533 -13 573 1 48 17 55 76 10 101 -8 4 -39 12 -71 18 -34 7 -66 20 -82 35
l-26 24 0 486 0 486 -25 24 c-39 40 -70 33 -124 -26z"/>
<path d="M22133 1668 c-72 -83 -151 -128 -226 -128 -45 0 -77 -25 -77 -59 0
-31 27 -61 56 -61 37 -1 104 -39 124 -72 19 -31 20 -50 20 -340 0 -208 -4
-315 -11 -332 -14 -29 -58 -52 -118 -62 -53 -9 -73 -28 -69 -68 5 -52 24 -56
313 -56 291 0 308 3 313 58 5 46 -9 58 -74 66 -124 14 -124 16 -124 400 0 275
2 306 18 324 22 26 261 119 328 127 38 5 59 3 82 -9 61 -32 62 -39 62 -429 0
-339 -1 -354 -20 -375 -21 -22 -77 -42 -121 -42 -49 0 -75 -55 -45 -96 14 -18
30 -19 283 -22 167 -2 280 1 296 7 15 6 32 22 39 35 18 40 -9 72 -69 81 -51 7
-97 27 -110 47 -4 7 -10 202 -13 433 -5 459 -6 463 -67 527 -84 87 -202 75
-482 -51 -62 -28 -121 -51 -132 -51 -30 0 -49 39 -49 102 0 64 -13 78 -69 78
-22 0 -39 -9 -58 -32z"/>
<path d="M13885 1680 c-218 -29 -406 -186 -482 -401 -35 -98 -43 -263 -19
-359 55 -218 222 -391 431 -445 78 -21 223 -21 300 0 151 40 302 159 372 290
93 176 98 403 13 579 -110 230 -364 369 -615 336z m200 -154 c117 -54 171
-176 182 -411 12 -282 -63 -471 -206 -513 -49 -15 -143 -15 -192 0 -143 42
-218 231 -206 513 11 235 65 357 182 411 70 33 170 33 240 0z"/>
<path d="M18020 1680 c-235 -37 -399 -194 -461 -441 -30 -117 -24 -292 14
-398 61 -173 190 -299 364 -355 172 -56 417 -26 561 70 62 41 81 72 64 109
-16 35 -53 41 -110 17 -62 -26 -140 -42 -207 -42 -276 0 -445 201 -445 529 0
132 19 209 68 280 49 73 103 101 190 101 117 0 159 -40 208 -200 17 -56 36
-93 59 -118 32 -36 36 -37 104 -37 68 0 72 1 107 37 32 31 38 44 42 92 7 82
-13 139 -69 201 -105 114 -317 181 -489 155z"/>
<path d="M20989 1680 c-138 -21 -249 -81 -348 -187 -114 -121 -165 -254 -165
-428 0 -150 37 -260 127 -380 74 -99 205 -183 332 -214 70 -18 210 -15 286 4
274 71 464 336 446 625 -14 228 -141 427 -333 523 -97 49 -241 73 -345 57z
m208 -155 c80 -40 133 -123 160 -249 23 -109 20 -340 -6 -441 -43 -165 -133
-245 -277 -245 -121 0 -190 39 -243 139 -43 81 -61 184 -61 344 0 201 30 313
106 397 54 60 102 80 195 80 61 0 85 -5 126 -25z"/>
<path d="M2981 1624 c-127 -34 -250 -130 -309 -243 -53 -97 -76 -200 -75 -331
0 -133 17 -219 65 -316 88 -180 286 -286 506 -270 230 17 383 134 459 353 25
72 27 90 27 228 0 136 -3 158 -27 231 -61 184 -183 303 -358 349 -69 19 -218
18 -288 -1z m220 -186 c22 -6 57 -27 79 -45 89 -77 125 -189 118 -373 -7 -172
-47 -266 -141 -328 -33 -22 -54 -28 -117 -30 -88 -4 -132 12 -188 69 -147 150
-128 558 31 671 64 46 144 59 218 36z"/>
<path d="M5330 1624 c-185 -49 -324 -190 -376 -384 -23 -87 -24 -271 -1 -360
62 -238 217 -377 455 -410 281 -38 519 114 569 362 l6 28 -130 0 -129 0 -12
-45 c-15 -58 -84 -129 -138 -144 -62 -17 -144 -13 -194 10 -103 46 -162 141
-184 297 l-6 42 399 0 399 0 5 28 c3 15 1 64 -4 108 -28 250 -156 414 -364
469 -74 19 -222 19 -295 -1z m215 -175 c89 -22 167 -120 181 -228 l7 -52 -223
3 -222 3 -24 28 c-44 52 -21 134 57 200 61 53 136 68 224 46z"/>
<path d="M6757 1629 c-56 -13 -111 -44 -167 -94 -28 -25 -59 -45 -70 -45 -25
0 -49 35 -57 83 l-6 37 -123 0 -124 0 2 -557 3 -558 123 -3 122 -3 0 294 c0
162 5 318 10 348 33 171 159 299 297 299 65 0 99 -13 140 -52 59 -57 63 -86
71 -505 l7 -378 122 -3 122 -3 3 348 3 348 28 60 c58 123 122 174 232 183 108
8 181 -32 222 -123 16 -36 18 -80 21 -428 l3 -388 122 3 122 3 0 415 c0 374
-2 421 -18 475 -53 173 -192 264 -387 253 -84 -5 -143 -28 -249 -96 -96 -63
-141 -59 -230 20 -76 66 -224 95 -344 67z"/>
<path d="M8737 1629 c-55 -13 -115 -46 -173 -95 -28 -24 -60 -44 -71 -44 -24
0 -53 53 -53 94 l0 26 -125 0 -125 0 2 -557 3 -558 120 0 120 0 5 325 c5 300
7 329 27 382 53 142 158 227 280 228 87 0 136 -28 176 -105 20 -37 22 -62 28
-310 4 -148 7 -328 8 -398 l1 -128 123 3 122 3 -3 410 c-4 505 -11 545 -113
647 -36 36 -61 51 -114 67 -71 22 -169 26 -238 10z"/>
<path d="M3713 1598 c3 -7 104 -257 226 -556 121 -298 225 -552 231 -563 38
-71 163 -78 222 -13 9 11 118 268 243 573 124 305 228 558 231 562 3 5 -59 9
-138 9 l-143 0 -94 -282 c-108 -328 -123 -363 -162 -383 -41 -22 -65 -19 -99
13 -25 23 -46 77 -135 336 -58 171 -105 311 -105 313 0 2 -63 3 -141 3 -109 0
-140 -3 -136 -12z"/>
</g>
</svg>
