<svg version="1.0" xmlns="http://www.w3.org/2000/svg" viewBox="0 0 2056.000000 316.000000" preserveAspectRatio="xMidYMid meet">
<g transform="translate(0.000000,316.000000) scale(0.100000,-0.100000)" fill="#ffffff" stroke="none">
<path d="M19040 3129 c-19 -17 -51 -42 -70 -57 -19 -15 -57 -48 -84 -74 -28
-27 -54 -48 -57 -48 -4 0 -25 -17 -47 -37 -22 -21 -61 -55 -86 -76 l-46 -39 0
-184 c0 -149 -3 -192 -17 -226 -19 -49 -59 -91 -100 -105 -67 -24 -101 -33
-126 -33 l-27 0 0 -175 0 -175 25 0 c47 0 123 -21 143 -41 12 -10 26 -19 31
-19 5 0 13 -9 16 -20 3 -11 10 -20 14 -20 4 0 14 -12 22 -27 11 -23 15 -132
20 -568 7 -523 11 -619 30 -639 5 -6 9 -23 9 -38 0 -15 5 -28 10 -28 6 0 10
-7 10 -16 0 -54 131 -224 209 -270 17 -10 31 -22 31 -26 0 -4 8 -8 18 -8 10 0
22 -4 27 -8 6 -5 28 -14 50 -20 119 -35 269 -41 375 -16 36 8 77 17 93 21 15
3 27 9 27 14 0 5 10 9 23 9 12 0 30 7 40 14 15 12 17 33 17 185 0 184 -1 187
-52 160 -33 -18 -128 -38 -179 -39 -77 0 -182 47 -206 94 -46 90 -56 117 -64
175 -5 36 -8 305 -7 596 l3 530 213 3 212 2 0 175 0 175 -65 0 c-110 0 -215
34 -273 88 -18 17 -45 57 -60 89 l-27 58 -3 338 c-4 377 -2 368 -72 306z"/>
<path d="M26 3124 c-3 -9 -6 -675 -6 -1480 l0 -1464 240 0 239 0 3 823 3 822
28 30 c23 25 35 30 76 30 44 0 52 -4 85 -39 20 -22 36 -46 36 -53 0 -7 5 -22
10 -33 21 -41 27 -57 55 -145 17 -49 33 -91 37 -93 5 -2 8 -14 8 -27 0 -13 5
-27 10 -30 6 -3 10 -17 10 -31 0 -13 5 -24 10 -24 6 0 10 -10 10 -23 0 -13 4
-27 9 -33 5 -5 16 -36 26 -69 10 -33 22 -64 27 -69 4 -6 8 -20 8 -32 0 -13 5
-26 10 -29 6 -3 10 -15 10 -26 0 -10 5 -19 10 -19 6 0 10 -11 10 -24 0 -14 5
-28 10 -31 6 -3 10 -17 10 -30 0 -13 3 -25 8 -27 4 -2 20 -43 36 -93 17 -49
33 -94 38 -99 4 -6 8 -18 8 -28 0 -10 4 -26 9 -36 18 -35 31 -68 47 -122 9
-30 21 -59 25 -64 5 -6 9 -20 9 -33 0 -13 5 -23 10 -23 6 0 10 -13 10 -30 0
-16 5 -30 10 -30 6 0 10 -11 10 -24 0 -13 4 -26 8 -28 4 -2 23 -49 41 -105
l33 -103 213 0 c213 0 214 0 220 23 3 12 10 31 15 42 19 45 52 142 57 167 3
16 9 28 14 28 5 0 9 11 9 24 0 14 4 28 10 31 5 3 10 17 10 30 0 13 3 25 8 27
4 2 20 44 37 93 28 88 34 104 55 145 6 11 10 29 10 40 0 11 5 20 10 20 6 0 10
14 10 30 0 17 5 30 10 30 6 0 10 11 10 24 0 14 4 27 9 30 5 3 12 18 15 33 8
32 43 130 57 155 5 10 9 27 9 38 0 11 5 20 10 20 6 0 10 9 10 20 0 10 5 32 11
47 6 15 15 37 19 48 4 11 13 34 20 50 6 17 18 50 26 75 15 46 29 81 45 112 5
10 9 25 9 33 0 8 4 23 9 33 6 9 25 57 43 107 40 111 89 165 148 165 37 0 80
-26 80 -49 0 -6 5 -11 10 -11 7 0 10 -283 10 -830 l0 -830 240 0 240 0 0 1464
c0 805 -3 1471 -6 1480 -5 14 -45 16 -340 16 l-334 0 -11 -27 c-6 -16 -29 -80
-51 -143 -21 -63 -43 -124 -48 -135 -5 -11 -16 -40 -24 -65 -43 -129 -78 -227
-86 -242 -6 -10 -10 -26 -10 -36 0 -10 -4 -22 -8 -27 -5 -6 -26 -64 -48 -130
-21 -66 -42 -121 -46 -123 -5 -2 -8 -17 -8 -33 0 -16 -4 -29 -10 -29 -5 0 -10
-11 -10 -25 0 -14 -4 -25 -10 -25 -5 0 -10 -13 -10 -30 0 -16 -4 -30 -10 -30
-5 0 -10 -8 -10 -18 0 -9 -10 -42 -21 -72 -12 -30 -24 -67 -26 -82 -3 -16 -9
-28 -14 -28 -5 0 -9 -13 -9 -30 0 -16 -4 -30 -10 -30 -5 0 -10 -11 -10 -25 0
-14 -4 -25 -10 -25 -5 0 -10 -13 -10 -30 0 -16 -4 -30 -10 -30 -5 0 -10 -8
-10 -17 -1 -21 -34 -120 -44 -130 -3 -3 -6 -17 -6 -30 0 -12 -4 -23 -10 -23
-5 0 -10 -13 -10 -30 0 -16 -4 -30 -10 -30 -5 0 -10 -11 -10 -24 0 -14 -4 -28
-10 -31 -5 -3 -10 -16 -11 -28 -1 -35 -62 -141 -86 -152 -13 -5 -23 -13 -23
-17 0 -5 -8 -8 -18 -8 -10 0 -23 -5 -29 -11 -9 -9 -23 -8 -57 2 -25 7 -46 17
-46 21 0 4 -5 8 -11 8 -16 0 -47 38 -65 80 -9 19 -20 43 -25 52 -5 10 -9 25
-9 33 0 8 -4 23 -10 33 -5 9 -21 53 -35 97 -15 44 -31 88 -36 97 -5 10 -9 27
-9 38 0 11 -4 20 -10 20 -5 0 -10 11 -10 25 0 14 -4 25 -10 25 -5 0 -10 14
-10 30 0 17 -4 30 -10 30 -5 0 -10 7 -10 16 0 23 -53 178 -62 182 -5 2 -8 17
-8 33 0 16 -4 29 -10 29 -5 0 -10 11 -10 25 0 14 -4 25 -10 25 -5 0 -10 14
-10 30 0 17 -4 30 -10 30 -5 0 -10 8 -10 18 -1 20 -34 119 -44 129 -3 3 -6 17
-6 30 0 13 -4 23 -10 23 -5 0 -10 14 -10 30 0 17 -4 30 -10 30 -5 0 -10 11
-10 24 0 14 -4 28 -10 31 -5 3 -10 16 -10 29 0 12 -4 26 -9 32 -5 5 -14 25
-19 44 -6 19 -22 66 -36 105 -14 38 -26 78 -26 87 0 10 -4 18 -10 18 -5 0 -10
13 -10 29 0 16 -4 31 -8 33 -4 2 -18 32 -29 68 -63 189 -91 260 -108 272 -5 4
-157 8 -336 8 -289 0 -328 -2 -333 -16z"/>
<path d="M19950 3020 c0 -5 -7 -10 -15 -10 -25 0 -85 -55 -102 -93 -28 -61
-32 -90 -21 -138 6 -27 15 -49 20 -49 4 0 8 -5 8 -11 0 -10 28 -40 79 -81 12
-10 28 -18 36 -18 8 0 15 -3 15 -7 0 -5 25 -21 55 -37 30 -16 55 -32 55 -37 0
-5 6 -9 13 -9 17 0 50 -35 76 -83 22 -40 29 -132 12 -165 -5 -9 -20 -38 -32
-65 -13 -26 -34 -58 -46 -72 -13 -13 -23 -27 -23 -30 0 -3 -40 -46 -90 -95
-126 -127 -133 -172 -25 -178 32 -2 63 2 68 7 6 6 19 11 29 11 10 0 18 4 18 8
0 5 11 14 24 20 14 6 43 27 64 47 22 19 45 35 51 35 6 0 11 4 11 10 0 10 17
32 78 98 17 20 32 39 32 44 0 4 7 16 16 27 24 27 94 160 94 177 0 8 5 14 10
14 6 0 10 14 10 30 0 17 4 30 9 30 9 0 15 27 29 125 10 69 -10 225 -29 225 -5
0 -9 9 -9 20 0 11 -4 20 -10 20 -5 0 -10 6 -10 14 0 8 -31 46 -69 84 -65 67
-152 122 -192 122 -10 0 -21 5 -24 10 -3 6 -52 10 -111 10 -63 0 -104 -4 -104
-10z"/>
<path d="M4322 2299 c-46 -5 -92 -14 -102 -19 -10 -6 -28 -10 -39 -10 -12 0
-21 -4 -21 -10 0 -5 -13 -10 -30 -10 -16 0 -30 -4 -30 -10 0 -5 -9 -10 -20
-10 -11 0 -20 -4 -20 -9 0 -5 -10 -11 -22 -15 -45 -11 -155 -92 -235 -173 -46
-46 -83 -87 -83 -92 0 -5 -6 -16 -13 -23 -12 -12 -37 -53 -75 -124 -20 -38
-49 -110 -66 -169 -10 -33 -22 -74 -27 -91 -5 -17 -9 -47 -9 -67 0 -20 -4 -39
-10 -42 -6 -4 -10 -88 -10 -220 0 -132 4 -216 10 -220 6 -3 10 -22 10 -42 0
-39 2 -48 46 -188 34 -108 89 -219 131 -263 7 -7 13 -17 13 -22 0 -12 158
-170 170 -170 5 0 15 -6 22 -13 21 -21 138 -87 154 -87 7 0 14 -4 14 -10 0 -5
14 -10 30 -10 17 0 30 -4 30 -9 0 -10 7 -12 170 -41 130 -24 267 -22 400 5 41
9 90 18 108 22 18 3 35 9 38 14 3 5 14 9 25 9 10 0 19 5 19 10 0 6 11 10 25
10 14 0 25 5 25 10 0 6 9 10 20 10 11 0 20 3 20 8 0 4 18 15 39 25 72 35 261
219 261 254 0 7 4 13 9 13 11 0 81 133 81 154 0 9 5 16 10 16 6 0 10 11 10 25
0 14 5 25 10 25 6 0 10 13 10 29 0 17 4 32 9 35 5 3 11 20 14 38 3 18 12 76
21 128 28 170 17 446 -24 595 -7 22 -14 52 -17 68 -3 15 -9 30 -14 33 -5 3 -9
14 -9 25 0 10 -4 19 -10 19 -5 0 -10 8 -10 18 0 18 -46 122 -59 132 -3 3 -13
18 -22 33 -27 48 -169 207 -185 207 -3 0 -19 13 -36 29 -18 16 -49 38 -70 48
-21 10 -38 21 -38 26 0 4 -9 7 -20 7 -11 0 -20 5 -20 10 0 6 -11 10 -25 10
-14 0 -25 5 -25 10 0 6 -11 10 -25 10 -14 0 -25 4 -25 9 0 5 -15 11 -32 14
-18 3 -53 10 -78 16 -65 15 -302 21 -398 10z m283 -359 c3 -5 14 -10 24 -10
23 0 73 -25 131 -64 55 -37 61 -43 85 -83 11 -18 23 -33 27 -33 4 0 8 -6 8
-13 0 -7 9 -23 20 -35 11 -12 20 -28 20 -36 0 -8 4 -17 9 -20 5 -3 11 -16 14
-28 2 -13 12 -50 22 -83 18 -64 32 -161 42 -289 5 -75 -5 -181 -29 -306 -16
-85 -57 -200 -70 -200 -5 0 -8 -9 -8 -20 0 -11 -4 -20 -10 -20 -5 0 -10 -4
-10 -10 0 -25 -106 -130 -155 -155 -22 -11 -42 -22 -45 -25 -29 -29 -287 -47
-313 -21 -6 6 -19 11 -29 11 -19 0 -53 17 -76 38 -7 6 -18 12 -23 12 -12 0
-119 107 -119 119 0 5 -4 11 -8 13 -4 2 -20 30 -36 63 -16 33 -32 68 -37 77
-5 10 -9 29 -9 43 0 14 -4 25 -10 25 -5 0 -10 20 -10 45 0 25 -5 45 -10 45
-12 0 -8 434 4 485 23 97 36 136 62 187 8 14 14 33 14 42 0 9 5 16 10 16 6 0
10 7 10 15 0 8 4 15 8 15 4 0 15 12 24 28 21 35 53 72 63 72 4 0 15 8 24 19
20 22 117 71 143 71 10 0 18 5 18 10 0 6 43 10 109 10 63 0 112 -4 116 -10z"/>
<path d="M8690 2299 c-74 -7 -139 -22 -172 -40 -10 -5 -27 -9 -38 -9 -11 0
-20 -4 -20 -10 0 -5 -9 -10 -19 -10 -17 0 -90 -33 -116 -53 -5 -4 -35 -24 -65
-44 -57 -38 -210 -186 -210 -204 0 -5 -8 -19 -19 -30 -10 -11 -27 -37 -37 -59
-10 -22 -22 -40 -26 -40 -5 0 -8 -9 -8 -20 0 -11 -4 -20 -10 -20 -5 0 -10 -11
-10 -24 0 -13 -3 -26 -8 -28 -11 -5 -49 -124 -66 -210 -25 -122 -22 -447 5
-569 11 -52 23 -106 26 -121 3 -16 9 -28 14 -28 5 0 9 -11 9 -24 0 -14 5 -28
10 -31 6 -3 10 -15 10 -26 0 -10 5 -19 10 -19 6 0 10 -6 10 -14 0 -18 68 -140
81 -144 5 -2 9 -10 9 -17 0 -22 149 -167 220 -216 80 -54 148 -89 172 -89 10
0 18 -4 18 -10 0 -5 11 -10 25 -10 14 0 25 -4 25 -9 0 -5 15 -11 33 -14 17 -4
57 -11 87 -17 102 -20 336 -23 435 -5 50 9 105 19 123 22 17 3 32 9 32 14 0 5
11 9 25 9 14 0 25 5 25 10 0 6 7 10 16 10 16 0 144 66 154 79 3 4 20 17 38 30
38 27 142 131 142 142 0 4 6 14 13 21 21 23 63 92 77 128 7 19 17 39 22 44 4
6 8 20 8 31 0 12 3 25 7 29 4 4 15 38 24 77 l16 69 -236 0 -236 0 -12 -27 c-7
-15 -13 -33 -13 -40 0 -32 -60 -133 -107 -181 -29 -28 -57 -52 -62 -52 -5 0
-14 -7 -21 -15 -7 -8 -21 -15 -31 -15 -11 0 -19 -4 -19 -9 0 -5 -15 -12 -32
-16 -54 -12 -250 -17 -272 -7 -12 5 -51 22 -88 37 -38 15 -68 30 -68 34 0 4
-12 14 -27 22 -30 15 -45 30 -78 75 -11 15 -26 33 -32 40 -7 7 -13 20 -13 28
0 9 -3 16 -8 16 -14 0 -82 171 -82 208 0 13 -4 31 -9 40 -5 9 -10 50 -13 90
l-4 72 743 0 743 0 0 108 c0 60 -4 133 -10 163 -5 30 -14 83 -20 119 -13 73
-60 223 -72 228 -4 2 -8 15 -8 28 0 13 -3 24 -7 24 -5 0 -16 17 -26 39 -10 21
-30 51 -43 66 -13 15 -24 32 -24 37 0 18 -147 157 -205 193 -33 21 -61 42 -63
47 -2 4 -12 8 -23 8 -10 0 -19 5 -19 10 0 6 -11 10 -25 10 -14 0 -25 4 -25 8
0 4 -21 14 -47 21 -27 7 -59 17 -73 22 -73 25 -277 34 -430 18z m250 -339 c0
-5 13 -10 28 -10 61 0 232 -110 232 -149 0 -6 5 -11 10 -11 6 0 10 -7 10 -15
0 -8 3 -15 8 -15 7 0 14 -15 47 -95 21 -50 34 -107 40 -172 l6 -63 -378 0
c-413 0 -432 3 -488 57 -37 37 -63 117 -47 144 7 10 12 27 12 38 0 37 46 113
110 180 32 33 105 81 124 81 8 0 18 5 21 10 3 6 19 10 35 10 16 0 32 5 35 10
3 6 48 10 101 10 56 0 94 -4 94 -10z"/>
<path d="M11315 2300 c-75 -6 -137 -21 -177 -41 -10 -5 -25 -9 -33 -9 -8 0
-15 -4 -15 -10 0 -5 -9 -10 -20 -10 -11 0 -20 -4 -20 -10 0 -5 -6 -10 -14 -10
-8 0 -16 -3 -18 -7 -1 -5 -21 -20 -44 -36 -22 -15 -61 -48 -86 -75 -58 -60
-109 -81 -143 -58 -14 9 -25 23 -25 31 0 8 -4 15 -9 15 -11 0 -21 29 -35 105
l-11 60 -222 3 -223 2 0 -1035 0 -1035 224 0 224 0 4 590 c2 454 6 592 16 602
6 6 12 27 12 45 0 18 5 33 10 33 6 0 10 14 10 30 0 17 5 30 10 30 6 0 10 11
10 25 0 14 3 25 8 25 4 0 16 20 27 45 11 25 23 45 27 45 5 0 8 6 8 14 0 16
132 156 147 156 5 0 18 8 29 18 57 53 200 87 319 75 65 -6 157 -44 190 -77 31
-33 71 -97 86 -141 7 -22 17 -44 21 -49 4 -6 8 -34 8 -62 0 -29 5 -56 10 -59
7 -4 10 -240 10 -676 l0 -669 230 0 230 0 0 595 c0 390 3 595 10 595 6 0 10
20 10 44 0 25 5 48 10 51 6 3 10 15 10 25 0 17 35 105 59 150 26 48 38 66 54
81 9 9 17 20 17 24 0 14 88 89 133 114 77 42 127 53 236 54 111 0 190 -18 229
-53 9 -8 29 -21 44 -29 15 -8 30 -22 34 -33 3 -10 9 -18 13 -18 4 0 13 -16 21
-35 8 -19 17 -35 22 -35 4 0 8 -8 8 -18 0 -10 4 -22 9 -27 20 -22 24 -129 28
-792 l4 -693 229 0 230 0 0 754 c0 493 -3 757 -10 761 -5 3 -10 25 -10 47 0
61 -46 193 -101 288 -23 41 -142 156 -176 171 -18 7 -33 17 -33 21 0 5 -9 8
-20 8 -11 0 -20 5 -20 10 0 6 -7 10 -15 10 -8 0 -23 4 -33 9 -110 58 -487 57
-557 -1 -5 -4 -17 -8 -27 -8 -10 0 -18 -4 -18 -10 0 -5 -9 -10 -20 -10 -11 0
-20 -4 -20 -8 0 -5 -16 -14 -35 -22 -19 -8 -35 -17 -35 -21 0 -4 -8 -10 -17
-13 -10 -3 -34 -19 -53 -36 -19 -16 -41 -30 -47 -30 -7 0 -13 -4 -13 -10 0 -5
-9 -10 -20 -10 -11 0 -20 -4 -20 -9 0 -8 -22 -15 -98 -28 -33 -5 -122 15 -122
29 0 4 -9 8 -20 8 -11 0 -20 5 -20 10 0 6 -4 10 -9 10 -4 0 -29 19 -54 43 -61
57 -74 67 -87 67 -5 0 -10 5 -10 10 0 6 -9 10 -20 10 -11 0 -20 5 -20 10 0 6
-9 10 -20 10 -11 0 -20 4 -20 9 0 5 -12 11 -27 14 -104 21 -136 26 -203 30
-41 2 -111 1 -155 -3z"/>
<path d="M14705 2299 c-44 -5 -91 -13 -105 -18 -14 -5 -46 -15 -72 -22 -27 -7
-48 -17 -48 -21 0 -4 -11 -8 -25 -8 -14 0 -25 -4 -25 -10 0 -5 -9 -10 -20 -10
-11 0 -20 -4 -20 -10 0 -5 -9 -10 -20 -10 -11 0 -20 -4 -20 -10 0 -5 -5 -10
-10 -10 -39 0 -280 -224 -280 -260 0 -5 -4 -10 -10 -10 -5 0 -10 -7 -10 -15 0
-8 -4 -15 -10 -15 -5 0 -10 -7 -10 -15 0 -8 -4 -15 -10 -15 -5 0 -10 -9 -10
-20 0 -11 -4 -20 -10 -20 -5 0 -10 -8 -10 -18 0 -10 -4 -22 -9 -28 -14 -15
-61 -147 -61 -171 0 -12 -4 -25 -10 -28 -5 -3 -10 -25 -10 -49 0 -23 -5 -47
-12 -54 -15 -15 -15 -439 1 -455 6 -6 11 -32 11 -58 0 -26 5 -51 10 -54 6 -3
10 -19 10 -35 0 -16 5 -32 10 -35 6 -3 10 -14 10 -24 0 -32 88 -221 102 -221
5 0 8 -5 8 -10 0 -36 173 -228 233 -259 15 -8 27 -17 27 -20 0 -4 20 -15 45
-26 25 -11 45 -23 45 -27 0 -5 9 -8 20 -8 11 0 20 -4 20 -10 0 -5 11 -10 25
-10 14 0 25 -4 25 -10 0 -5 14 -10 30 -10 17 0 30 -4 30 -9 0 -5 12 -11 28
-14 226 -42 378 -48 522 -21 47 9 100 19 118 21 17 3 32 9 32 14 0 5 14 9 30
9 17 0 30 5 30 10 0 6 9 10 20 10 11 0 20 4 20 8 0 4 16 14 35 21 19 7 56 28
80 47 25 19 48 34 50 34 9 0 101 96 126 131 12 19 26 36 30 39 13 9 79 138 79
154 0 9 5 16 10 16 6 0 10 11 10 25 0 14 5 25 10 25 6 0 10 15 10 34 0 19 5
38 10 41 6 3 10 22 10 41 l0 34 -235 0 -235 0 -5 -27 c-4 -16 -10 -36 -16 -45
-5 -10 -9 -27 -9 -38 0 -11 -4 -20 -10 -20 -5 0 -10 -7 -10 -16 0 -8 -6 -21
-12 -28 -7 -7 -22 -25 -33 -40 -38 -52 -51 -64 -100 -92 -91 -50 -142 -64
-244 -64 -52 0 -111 5 -130 12 -62 20 -151 61 -151 70 0 4 -5 8 -11 8 -10 0
-81 70 -122 119 -16 20 -50 89 -79 161 -6 14 -14 33 -19 42 -5 10 -9 34 -9 53
0 19 -4 35 -10 35 -6 0 -10 35 -10 85 l0 85 735 0 735 0 6 26 c9 34 -5 294
-17 316 -5 9 -9 32 -9 52 0 19 -4 38 -10 41 -5 3 -10 19 -10 36 0 16 -4 37 -9
47 -18 34 -61 147 -61 160 0 6 -3 12 -8 12 -4 0 -13 12 -19 28 -7 15 -24 40
-38 56 -14 16 -25 33 -25 38 0 12 -135 145 -180 179 -48 35 -148 89 -166 89
-8 0 -14 5 -14 10 0 6 -9 10 -20 10 -11 0 -28 4 -38 9 -87 44 -298 61 -497 40z
m265 -339 c0 -5 16 -10 35 -10 19 0 35 -4 35 -10 0 -5 9 -10 20 -10 11 0 20
-4 20 -10 0 -5 6 -10 13 -10 26 0 131 -96 142 -130 3 -11 11 -20 16 -20 5 0 9
-7 9 -15 0 -8 5 -15 10 -15 6 0 10 -9 10 -20 0 -11 5 -20 10 -20 6 0 10 -13
10 -28 0 -15 4 -32 8 -37 10 -11 32 -129 32 -169 l0 -26 -380 0 c-378 0 -380
0 -433 24 -76 33 -101 76 -95 159 3 37 14 83 28 112 26 54 149 185 175 185 8
0 15 5 15 10 0 6 9 10 20 10 11 0 20 5 20 10 0 6 16 10 35 10 19 0 35 5 35 10
0 6 42 10 105 10 63 0 105 -4 105 -10z"/>
<path d="M17334 2300 c-45 -5 -102 -15 -126 -24 -70 -23 -128 -50 -128 -58 0
-5 -9 -8 -20 -8 -11 0 -20 -4 -20 -9 0 -5 -8 -12 -17 -15 -10 -3 -52 -38 -93
-76 -103 -96 -154 -108 -195 -47 -20 32 -45 115 -45 155 l0 32 -227 -2 -228
-3 -3 -1032 -2 -1033 230 0 230 0 0 538 c0 436 3 552 15 617 18 96 57 225 67
225 5 0 8 9 8 20 0 11 5 20 10 20 6 0 10 5 10 10 0 32 151 210 178 210 7 0 12
5 12 10 0 6 7 10 15 10 8 0 15 3 15 8 0 8 30 22 100 48 31 11 79 16 150 16 94
0 111 -2 163 -27 60 -29 127 -87 127 -111 0 -8 3 -14 8 -14 11 0 42 -77 60
-150 13 -55 16 -174 19 -747 l4 -683 233 0 234 0 -5 613 c-6 731 -19 1047 -44
1047 -5 0 -9 16 -9 35 0 19 -4 35 -10 35 -5 0 -10 8 -10 17 0 9 -16 46 -36 81
-37 68 -163 202 -189 202 -8 0 -15 3 -15 8 0 6 -17 15 -85 42 -11 4 -32 12
-47 18 -25 10 -87 18 -203 26 -27 2 -87 0 -131 -4z"/>
<path d="M5575 2240 c-3 -5 -2 -10 3 -10 5 0 12 -13 15 -30 4 -16 16 -49 27
-72 11 -23 20 -48 20 -55 0 -7 5 -13 10 -13 6 0 10 -11 10 -25 0 -14 4 -25 8
-25 4 0 14 -21 22 -47 13 -48 64 -172 91 -225 5 -10 9 -22 9 -28 0 -5 14 -39
30 -75 17 -36 30 -70 30 -76 0 -6 7 -25 16 -42 31 -60 34 -67 34 -87 0 -11 5
-20 10 -20 6 0 10 -7 10 -15 0 -8 4 -23 9 -33 27 -52 101 -243 101 -259 0 -7
5 -13 10 -13 6 0 10 -11 10 -24 0 -13 3 -26 8 -28 6 -3 30 -59 56 -135 6 -18
14 -33 18 -33 5 0 8 -11 8 -25 0 -14 5 -25 10 -25 6 0 10 -11 10 -24 0 -14 5
-28 10 -31 6 -3 10 -15 10 -26 0 -10 4 -19 8 -19 4 0 17 -29 27 -65 11 -36 23
-65 28 -65 4 0 7 -9 7 -19 0 -11 5 -23 10 -26 6 -3 10 -15 10 -26 0 -10 5 -19
10 -19 6 0 10 -13 10 -30 0 -16 5 -30 10 -30 6 0 10 -9 10 -20 0 -11 5 -20 10
-20 6 0 10 -9 10 -20 0 -17 33 -99 61 -152 5 -10 9 -25 9 -33 0 -8 5 -15 10
-15 6 0 10 -7 10 -16 0 -18 72 -94 89 -94 6 0 11 -4 11 -10 0 -5 11 -10 25
-10 14 0 25 -4 25 -10 0 -13 137 -13 145 0 3 6 15 10 26 10 11 0 32 11 47 25
15 14 35 33 45 43 23 20 67 105 67 127 0 8 5 15 10 15 6 0 10 11 10 25 0 14 5
25 10 25 6 0 10 7 10 15 0 8 4 23 9 33 19 34 41 90 41 101 0 6 4 19 9 29 39
77 51 106 51 123 0 10 5 19 10 19 6 0 10 7 10 15 0 8 4 23 9 33 20 37 61 144
61 158 0 8 5 14 10 14 6 0 10 9 10 19 0 11 5 23 10 26 6 3 10 17 10 31 0 13 5
24 10 24 6 0 10 11 10 25 0 14 3 25 8 25 4 0 12 15 18 33 26 76 50 132 57 135
4 2 7 15 7 28 0 13 4 24 8 24 4 0 14 21 21 48 8 26 17 49 20 52 6 5 32 72 55
138 6 17 14 32 18 32 5 0 8 11 8 25 0 14 5 25 10 25 6 0 10 7 10 15 0 8 4 23
9 33 22 43 61 141 61 155 0 9 5 19 10 22 6 3 10 17 10 31 0 13 5 24 10 24 6 0
10 9 10 20 0 11 5 20 10 20 6 0 10 11 10 25 0 14 3 25 8 25 4 0 12 15 18 33
26 76 50 132 57 135 4 2 7 15 7 28 0 13 5 24 10 24 6 0 10 11 10 25 0 14 5 25
10 25 6 0 10 11 10 25 0 14 5 25 10 25 6 0 10 5 10 10 0 6 -92 10 -256 10
-277 0 -284 -1 -284 -54 0 -14 -4 -26 -10 -26 -5 0 -10 -9 -10 -20 0 -10 -5
-32 -11 -47 -6 -15 -15 -37 -20 -48 -4 -11 -15 -45 -24 -75 -9 -30 -20 -63
-26 -72 -5 -10 -9 -29 -9 -43 0 -14 -4 -25 -10 -25 -5 0 -10 -13 -10 -30 0
-16 -4 -30 -10 -30 -5 0 -10 -11 -10 -24 0 -14 -4 -28 -10 -31 -5 -3 -10 -17
-10 -31 0 -13 -4 -24 -10 -24 -5 0 -10 -9 -10 -20 0 -22 -26 -106 -40 -132 -6
-10 -10 -27 -10 -37 0 -11 -4 -23 -10 -26 -5 -3 -10 -19 -10 -36 0 -16 -4 -29
-10 -29 -5 0 -10 -11 -10 -24 0 -14 -4 -27 -9 -30 -5 -3 -11 -18 -14 -33 -5
-30 -24 -87 -38 -115 -5 -10 -9 -27 -9 -38 0 -11 -4 -20 -10 -20 -5 0 -10 -9
-10 -20 0 -11 -4 -20 -10 -20 -5 0 -10 -5 -10 -11 0 -17 -72 -79 -92 -79 -10
0 -18 -4 -18 -10 0 -13 -45 -13 -68 -1 -9 5 -32 16 -49 23 -18 7 -33 15 -33
19 0 3 -9 14 -19 26 -26 27 -51 78 -51 102 0 11 -4 23 -10 26 -5 3 -10 17 -10
30 0 13 -4 27 -10 30 -5 3 -10 15 -10 26 0 10 -4 27 -10 37 -14 25 -100 288
-100 306 0 9 -4 16 -10 16 -5 0 -10 14 -10 30 0 17 -4 30 -10 30 -5 0 -10 11
-10 24 0 14 -4 28 -10 31 -5 3 -10 15 -10 26 0 10 -4 27 -9 37 -6 9 -18 44
-27 77 -9 33 -21 64 -26 70 -4 5 -8 19 -8 32 0 13 -4 23 -10 23 -5 0 -10 13
-10 28 0 15 -4 32 -8 37 -5 6 -17 37 -27 70 -35 117 -2 105 -291 105 -158 0
-255 -4 -259 -10z"/>
</g>
</svg>
