<svg version="1.0" xmlns="http://www.w3.org/2000/svg" viewBox="0 0 181.000000 136.000000" preserveAspectRatio="xMidYMid meet">
<g transform="translate(0.000000,136.000000) scale(0.100000,-0.100000)" fill="#000000" stroke="none">
<path d="M10 820 l0 -531 83 3 82 3 5 299 c5 270 7 300 22 310 14 8 22 6 37
-9 11 -11 65 -144 120 -295 55 -151 103 -283 106 -292 6 -15 20 -18 81 -18 41
0 74 2 74 3 0 9 211 579 220 598 8 14 19 19 38 17 l27 -3 5 -305 5 -305 85 0
85 0 0 525 0 525 -124 0 -123 0 -19 -50 c-10 -27 -54 -153 -99 -280 -136 -388
-130 -375 -179 -375 -39 0 -44 11 -240 570 l-47 135 -122 3 -122 3 0 -531z"/>
<path d="M1267 1343 c-4 -3 -7 -14 -7 -24 0 -12 11 -19 40 -24 70 -12 70 -10
70 -255 0 -215 0 -219 -22 -234 -12 -9 -37 -16 -55 -16 -29 0 -33 -3 -33 -25
l0 -25 165 0 165 0 0 24 c0 21 -6 24 -47 29 -66 7 -74 23 -71 132 l3 90 105 5
c81 5 114 11 140 26 52 30 80 78 80 136 0 93 -47 139 -160 157 -71 12 -363 15
-373 4z m332 -54 c62 -13 91 -45 91 -100 0 -85 -44 -119 -154 -119 l-66 0 0
84 c0 117 11 139 67 145 7 0 35 -4 62 -10z"/>
</g>
</svg>
