<svg width="30" height="17" viewBox="0 0 30 17" fill="none" xmlns="http://www.w3.org/2000/svg">
<path d="M0 8.375V16.75L1.36695 16.7027L2.71743 16.6554L2.79978 11.9395C2.88212 7.68103 2.91506 7.20786 3.1621 7.05014C3.39267 6.92396 3.52442 6.95551 3.77146 7.19209C3.95263 7.36558 4.84197 9.46328 5.74778 11.8449C6.65359 14.2265 7.44411 16.3084 7.49352 16.4503C7.59233 16.6869 7.8229 16.7342 8.82753 16.7342C9.50277 16.7342 10.0463 16.7027 10.0463 16.6869C10.0463 16.545 13.5213 7.55485 13.6695 7.25518C13.8012 7.03437 13.9824 6.95551 14.2953 6.98705L14.74 7.03437L14.8223 11.8449L14.9047 16.6554H16.3046H17.7045V8.375V0.0946331H15.6623H13.6366L13.3236 0.883239C13.1589 1.30909 12.4343 3.29637 11.6932 5.29943C9.45336 11.419 9.55218 11.214 8.74518 11.214C8.10288 11.214 8.02054 11.0405 4.79256 2.22387L4.0185 0.0946331L2.00925 0.0473156L0 0V8.375Z" fill="black"/>
<path d="M20.7018 0.126125C20.636 0.173442 20.5865 0.346935 20.5865 0.504657C20.5865 0.693922 20.7677 0.804327 21.2453 0.883187C22.3982 1.07245 22.3982 1.04091 22.3982 4.90508C22.3982 8.29609 22.3982 8.35918 22.0358 8.59576C21.8382 8.73771 21.4265 8.84811 21.13 8.84811C20.6524 8.84811 20.5865 8.89543 20.5865 9.24242V9.63672H23.304H26.0214V9.25819C26.0214 8.92697 25.9226 8.87966 25.2474 8.8008C24.1604 8.69039 24.0286 8.43804 24.078 6.71887L24.1274 5.29938L25.8567 5.22052C27.1907 5.14166 27.7342 5.04703 28.1624 4.81045C29.0188 4.33728 29.48 3.58022 29.48 2.66544C29.48 1.19863 28.7059 0.473112 26.8449 0.189214C25.6756 -5.14984e-05 20.8665 -0.047368 20.7018 0.126125ZM26.1696 0.97782C27.1907 1.18286 27.6683 1.68757 27.6683 2.55503C27.6683 3.89566 26.9437 4.43192 25.1321 4.43192H24.0451V3.10706C24.0451 1.26172 24.2263 0.914732 25.1485 0.820099C25.2638 0.820099 25.725 0.883187 26.1696 0.97782Z" fill="black"/>
</svg>
