<?xml version="1.0" standalone="no"?>
<!DOCTYPE svg PUBLIC "-//W3C//DTD SVG 20010904//EN"
 "http://www.w3.org/TR/2001/REC-SVG-20010904/DTD/svg10.dtd">
<svg version="1.0" xmlns="http://www.w3.org/2000/svg"
 width="650.000000pt" height="515.000000pt" viewBox="0 0 650.000000 515.000000"
 preserveAspectRatio="xMidYMid meet">

<g transform="translate(0.000000,515.000000) scale(0.100000,-0.100000)"
fill="#000000" stroke="none">
<path d="M5689 4307 c-20 -14 -40 -39 -49 -63 -31 -85 -53 -89 -215 -49 -152
37 -247 49 -354 41 -350 -23 -591 -195 -667 -476 -27 -101 -25 -284 5 -380 39
-127 88 -201 181 -274 137 -108 281 -164 662 -261 375 -96 469 -141 533 -256
27 -49 30 -63 30 -144 0 -71 -5 -100 -21 -135 -58 -123 -195 -190 -387 -190
-114 0 -205 22 -311 74 -161 80 -320 220 -467 412 -126 165 -139 177 -191 178
-75 2 -128 -43 -128 -108 0 -14 63 -205 140 -423 160 -455 162 -459 251 -451
59 6 76 20 102 78 11 25 26 53 35 63 22 25 85 22 196 -13 274 -84 548 -85 753
-3 151 60 269 166 333 297 51 105 70 178 77 301 14 245 -83 456 -272 590 -118
85 -218 123 -500 192 -297 72 -391 101 -490 150 -130 64 -175 127 -175 243 0
125 57 200 189 251 78 31 269 38 360 14 181 -47 358 -183 522 -401 38 -51 76
-95 85 -98 8 -3 34 -6 56 -6 32 0 47 7 74 34 23 23 34 43 34 62 0 28 -199 651
-227 711 -15 33 -65 63 -106 63 -13 0 -39 -10 -58 -23z"/>
<path d="M302 2468 l3 -1763 280 0 280 0 5 980 c3 539 6 981 8 982 1 1 16 18
33 37 32 37 79 53 123 42 35 -9 84 -53 105 -95 10 -20 170 -452 356 -961 185
-509 343 -940 350 -958 l14 -32 246 2 247 3 344 945 c189 520 354 967 366 993
32 70 88 117 138 117 56 0 84 -16 111 -64 l24 -41 3 -978 2 -977 280 0 280 0
0 1765 0 1765 -404 0 c-235 0 -407 -4 -410 -9 -4 -5 -184 -513 -401 -1128
-218 -615 -407 -1135 -420 -1155 -14 -20 -45 -49 -70 -64 -39 -22 -54 -26
-104 -22 -67 5 -116 35 -156 96 -13 20 -199 534 -413 1142 -215 608 -394 1113
-397 1123 -7 16 -36 17 -416 17 l-409 0 2 -1762z"/>
</g>
</svg>
