<svg width="28" height="18" viewBox="0 0 28 18" fill="none" xmlns="http://www.w3.org/2000/svg">
<path d="M25.2569 0.928039C25.1646 0.993282 25.0723 1.10979 25.0308 1.22163C24.8877 1.61775 24.7862 1.63639 24.0385 1.44998C23.3369 1.27755 22.8985 1.22163 22.4046 1.25891C20.7893 1.3661 19.6769 2.16765 19.3262 3.47717C19.2016 3.94785 19.2108 4.80066 19.3493 5.24804C19.5293 5.83988 19.7554 6.18474 20.1846 6.52493C20.8169 7.02823 21.4816 7.2892 23.24 7.74124C24.9708 8.18862 25.4046 8.39833 25.7 8.93425C25.8246 9.1626 25.8385 9.22784 25.8385 9.60532C25.8385 9.93619 25.8154 10.0713 25.7416 10.2344C25.4739 10.8077 24.8416 11.1199 23.9554 11.1199C23.4293 11.1199 23.0093 11.0174 22.52 10.775C21.7769 10.4022 21.0431 9.74979 20.3646 8.85503C19.7831 8.0861 19.7231 8.03017 19.4831 8.02551C19.1369 8.01619 18.8923 8.2259 18.8923 8.52882C18.8923 8.59406 19.1831 9.48416 19.5385 10.5001C20.2769 12.6205 20.2862 12.6391 20.6969 12.6018C20.9693 12.5739 21.0477 12.5086 21.1677 12.2383C21.2185 12.1218 21.2877 11.9913 21.3293 11.9447C21.4308 11.8282 21.7216 11.8422 22.2339 12.0053C23.4985 12.3968 24.7631 12.4014 25.7093 12.0193C26.4062 11.7397 26.9508 11.2457 27.2462 10.6352C27.4816 10.1459 27.5693 9.80571 27.6016 9.2325C27.6662 8.09076 27.2185 7.10746 26.3462 6.48299C25.8016 6.08687 25.34 5.90979 24.0385 5.58823C22.6677 5.2527 22.2339 5.11755 21.7769 4.8892C21.1769 4.59095 20.9693 4.29736 20.9693 3.75678C20.9693 3.17425 21.2323 2.82474 21.8416 2.58707C22.2016 2.4426 23.0831 2.40998 23.5031 2.52183C24.3385 2.74085 25.1554 3.37464 25.9123 4.39056C26.0877 4.62823 26.2631 4.83328 26.3046 4.84726C26.3416 4.86124 26.4616 4.87522 26.5631 4.87522C26.7108 4.87522 26.78 4.8426 26.9046 4.71678C27.0108 4.60959 27.0616 4.51639 27.0616 4.42785C27.0616 4.29736 26.1431 1.39406 26.0139 1.11445C25.9446 0.960661 25.7139 0.820855 25.5246 0.820855C25.4646 0.820855 25.3446 0.867457 25.2569 0.928039Z" fill="black"/>
<path d="M0.393874 9.49906L0.40772 17.715H1.70003H2.99234L3.01541 13.148C3.02926 10.6361 3.04311 8.57634 3.05234 8.57168C3.05695 8.56702 3.12618 8.4878 3.20464 8.39925C3.35234 8.22682 3.56926 8.15226 3.77234 8.20352C3.93387 8.24547 4.16003 8.45051 4.25695 8.64624C4.30311 8.73945 5.04157 10.7527 5.90003 13.1247C6.75387 15.4967 7.48311 17.5053 7.51541 17.5892L7.58003 17.7383L8.71541 17.729L9.85541 17.715L11.4431 13.3111C12.3154 10.8878 13.077 8.80469 13.1323 8.68352C13.28 8.35731 13.5385 8.13828 13.7693 8.13828C14.0277 8.13828 14.157 8.21284 14.2816 8.43653L14.3923 8.6276L14.4062 13.1853L14.4154 17.7383H15.7077H17V9.51304V1.2878H15.1354C14.0508 1.2878 13.257 1.30644 13.2431 1.32974C13.2246 1.35304 12.3939 3.72042 11.3923 6.58644C10.3862 9.45246 9.51387 11.8758 9.45387 11.969C9.38926 12.0622 9.24618 12.1973 9.1308 12.2672C8.9508 12.3697 8.88157 12.3884 8.6508 12.3697C8.34157 12.3464 8.11541 12.2066 7.9308 11.9224C7.8708 11.8292 7.01234 9.43382 6.02464 6.60042C5.03234 3.76702 4.20618 1.41362 4.19234 1.36702C4.16003 1.29246 4.02618 1.2878 2.27234 1.2878H0.384644L0.393874 9.49906Z" fill="black"/>
</svg>
